<svg width="134" height="133" viewBox="0 0 134 133" fill="none" xmlns="http://www.w3.org/2000/svg">
<g id="Group 2358">
<path id="Union" fill-rule="evenodd" clip-rule="evenodd" d="M64.7702 94.5221C64.1634 91.9839 61.6472 90.1346 59.064 90.5058C47.7239 92.1354 35.7829 88.5881 27.0585 79.8637C12.356 65.1612 12.356 41.3237 27.0585 26.6212C41.761 11.9187 65.5984 11.9187 80.3009 26.6212C89.0253 35.3456 92.5727 47.2867 90.943 58.6268C90.5718 61.21 92.4211 63.7262 94.9593 64.333C99.3043 65.3717 103.425 67.5863 106.816 70.9769C116.592 80.7528 116.592 96.6028 106.816 106.379C97.04 116.155 81.19 116.155 71.414 106.379C68.0235 102.988 65.8089 98.8671 64.7702 94.5221Z" fill="#5BFB67"/>
<path id="Vector 416 (Stroke)" fill-rule="evenodd" clip-rule="evenodd" d="M50.7571 36.356C49.6565 36.3298 48.743 37.2008 48.7168 38.3015C48.6798 39.8576 48.5217 41.4018 48.3545 43.0353C48.3245 43.3282 48.2942 43.624 48.2643 43.9232C48.1548 45.0187 48.954 45.9956 50.0495 46.1051C51.145 46.2147 52.1219 45.4154 52.2314 44.3199C52.2594 44.0404 52.2884 43.7576 52.3177 43.4719C52.4848 41.8432 52.6615 40.1224 52.7025 38.3964C52.7288 37.2957 51.8578 36.3823 50.7571 36.356Z" fill="white"/>
<path id="Vector 420 (Stroke)" fill-rule="evenodd" clip-rule="evenodd" d="M34.8094 34.8853C33.7087 34.8591 32.7953 35.7301 32.769 36.8308C32.732 38.3869 32.5739 39.9311 32.4067 41.5646C32.3768 41.8575 32.3465 42.1533 32.3166 42.4525C32.207 43.548 33.0063 44.5249 34.1018 44.6344C35.1972 44.744 36.1741 43.9447 36.2837 42.8492C36.3116 42.5697 36.3406 42.2869 36.3699 42.0012C36.5371 40.3725 36.7137 38.6516 36.7548 36.9257C36.781 35.825 35.91 34.9115 34.8094 34.8853Z" fill="white"/>
<path id="Vector 419 (Stroke)" fill-rule="evenodd" clip-rule="evenodd" d="M34.3259 49.748C33.225 49.748 32.3325 50.6405 32.3325 51.7415C32.3325 54.6095 34.1841 57.2212 36.2062 58.6441C38.4894 60.2508 41.9904 60.5818 44.946 60.0465C47.871 59.5167 51.2146 57.947 52.3667 54.721C52.737 53.6842 52.1967 52.5435 51.1599 52.1733C50.1231 51.803 48.9824 52.3433 48.6121 53.3801C48.1799 54.5904 46.6401 55.6879 44.2355 56.1234C41.8615 56.5534 39.5867 56.1479 38.5006 55.3836C37.2194 54.4821 36.3194 52.9645 36.3194 51.7415C36.3194 50.6405 35.4269 49.748 34.3259 49.748Z" fill="white"/>
</g>
</svg>
