<svg width="134" height="133" viewBox="0 0 134 133" fill="none" xmlns="http://www.w3.org/2000/svg">
<g id="Group 2359">
<path id="Union" fill-rule="evenodd" clip-rule="evenodd" d="M64.7708 94.5221C64.164 91.9839 61.6478 90.1345 59.0646 90.5058C47.7244 92.1355 35.7834 88.5881 27.059 79.8637C12.3565 65.1612 12.3565 41.3237 27.059 26.6212C41.7615 11.9187 65.5989 11.9187 80.3014 26.6212C89.0258 35.3456 92.5732 47.2866 90.9435 58.6268C90.5723 61.21 92.4216 63.7262 94.9598 64.333C99.3049 65.3717 103.426 67.5863 106.817 70.9769C116.593 80.7528 116.593 96.6028 106.817 106.379C97.0406 116.155 81.1906 116.155 71.4146 106.379C68.0241 102.988 65.8095 98.8671 64.7708 94.5221Z" fill="#3F69FF"/>
<path id="Vector 416 (Stroke)" fill-rule="evenodd" clip-rule="evenodd" d="M50.7571 36.356C49.6565 36.3298 48.743 37.2008 48.7168 38.3015C48.6798 39.8576 48.5217 41.4018 48.3545 43.0353C48.3245 43.3282 48.2942 43.624 48.2643 43.9232C48.1548 45.0187 48.954 45.9956 50.0495 46.1051C51.145 46.2147 52.1219 45.4154 52.2314 44.3199C52.2594 44.0404 52.2884 43.7576 52.3177 43.4719C52.4848 41.8432 52.6615 40.1224 52.7025 38.3964C52.7288 37.2957 51.8578 36.3823 50.7571 36.356Z" fill="white"/>
<path id="Vector 420 (Stroke)" fill-rule="evenodd" clip-rule="evenodd" d="M34.8099 34.8853C33.7092 34.8591 32.7957 35.7301 32.7695 36.8308C32.7325 38.3869 32.5744 39.9311 32.4072 41.5646C32.3772 41.8575 32.347 42.1533 32.317 42.4525C32.2075 43.548 33.0068 44.5249 34.1022 44.6344C35.1977 44.744 36.1746 43.9447 36.2841 42.8492C36.3121 42.5697 36.3411 42.2869 36.3704 42.0012C36.5376 40.3725 36.7142 38.6516 36.7553 36.9257C36.7815 35.825 35.9105 34.9115 34.8099 34.8853Z" fill="white"/>
<path id="Vector 419 (Stroke)" fill-rule="evenodd" clip-rule="evenodd" d="M34.3259 49.748C33.225 49.748 32.3325 50.6405 32.3325 51.7415C32.3325 54.6095 34.1841 57.2212 36.2062 58.6441C38.4894 60.2508 41.9904 60.5818 44.946 60.0465C47.871 59.5167 51.2146 57.947 52.3667 54.721C52.737 53.6842 52.1967 52.5435 51.1599 52.1733C50.1231 51.803 48.9824 52.3433 48.6121 53.3801C48.1799 54.5904 46.6401 55.6879 44.2355 56.1234C41.8615 56.5534 39.5867 56.1479 38.5006 55.3836C37.2194 54.4821 36.3194 52.9645 36.3194 51.7415C36.3194 50.6405 35.4269 49.748 34.3259 49.748Z" fill="white"/>
</g>
</svg>
