<svg width="133" height="133" viewBox="0 0 133 133" fill="none" xmlns="http://www.w3.org/2000/svg">
<g id="Group 2357">
<path id="Union" fill-rule="evenodd" clip-rule="evenodd" d="M68.6673 94.5221C69.2741 91.9839 71.7903 90.1346 74.3735 90.5058C85.7136 92.1354 97.6546 88.5881 106.379 79.8637C121.082 65.1612 121.082 41.3237 106.379 26.6212C91.6765 11.9187 67.8391 11.9187 53.1366 26.6212C44.4122 35.3456 40.8648 47.2867 42.4945 58.6268C42.8657 61.21 41.0164 63.7262 38.4782 64.333C34.1332 65.3717 30.012 67.5863 26.6215 70.9769C16.8455 80.7528 16.8455 96.6028 26.6215 106.379C36.3975 116.155 52.2475 116.155 62.0235 106.379C65.414 102.988 67.6286 98.8671 68.6673 94.5221Z" fill="#FF5400"/>
<path id="Vector 416 (Stroke)" fill-rule="evenodd" clip-rule="evenodd" d="M82.6804 36.356C83.781 36.3298 84.6945 37.2008 84.7207 38.3015C84.7577 39.8576 84.9158 41.4018 85.083 43.0353C85.113 43.3282 85.1433 43.624 85.1732 43.9232C85.2827 45.0187 84.4835 45.9956 83.388 46.1051C82.2925 46.2147 81.3156 45.4154 81.2061 44.3199C81.1781 44.0404 81.1491 43.7576 81.1198 43.4719C80.9527 41.8432 80.776 40.1224 80.735 38.3964C80.7087 37.2957 81.5797 36.3823 82.6804 36.356Z" fill="white"/>
<path id="Vector 420 (Stroke)" fill-rule="evenodd" clip-rule="evenodd" d="M98.6281 34.8853C99.7288 34.8591 100.642 35.7301 100.668 36.8308C100.706 38.3869 100.864 39.9311 101.031 41.5646C101.061 41.8575 101.091 42.1533 101.121 42.4525C101.23 43.548 100.431 44.5249 99.3357 44.6344C98.2403 44.744 97.2634 43.9447 97.1538 42.8492C97.1259 42.5697 97.0969 42.2869 97.0676 42.0012C96.9004 40.3725 96.7238 38.6516 96.6827 36.9257C96.6565 35.825 97.5275 34.9115 98.6281 34.8853Z" fill="white"/>
<path id="Vector 419 (Stroke)" fill-rule="evenodd" clip-rule="evenodd" d="M101.893 49.748C102.994 49.748 103.886 50.6405 103.886 51.7415C103.886 54.6095 102.035 57.2212 100.013 58.6441C97.7293 60.2508 94.2283 60.5818 91.2727 60.0465C88.3478 59.5167 85.0042 57.947 83.852 54.721C83.4817 53.6842 84.0221 52.5435 85.0589 52.1733C86.0957 51.803 87.2363 52.3433 87.6066 53.3801C88.0389 54.5904 89.5786 55.6879 91.9833 56.1234C94.3572 56.5534 96.6321 56.1479 97.7182 55.3836C98.9993 54.4821 99.8994 52.9645 99.8994 51.7415C99.8994 50.6405 100.792 49.748 101.893 49.748Z" fill="white"/>
</g>
</svg>
