<svg width="51" height="50" viewBox="0 0 51 50" fill="none" xmlns="http://www.w3.org/2000/svg">
<g id="app store">
<path id="Rectangle 2567" d="M0.453125 9.89011C0.453125 4.42795 4.88108 0 10.3432 0H40.563C46.0252 0 50.4531 4.42795 50.4531 9.89011V40.1099C50.4531 45.572 46.0252 50 40.563 50H10.3432C4.88108 50 0.453125 45.572 0.453125 40.1099V9.89011Z" fill="url(#paint0_linear_281_1074)"/>
<path id="Vector" d="M16.9929 36.0727L16.9974 36.0742L15.3553 38.9154C14.7559 39.9526 13.4284 40.3079 12.3902 39.7091C11.352 39.1103 10.9963 37.7842 11.5957 36.747L12.8053 34.654L12.9215 34.4531C13.1288 34.1555 13.6404 33.6416 14.6637 33.7383C14.6637 33.7383 17.072 33.9994 17.2463 35.2498C17.2463 35.2498 17.2699 35.6612 16.9929 36.0727ZM40.2825 28.816H35.1621C34.8133 28.7926 34.6612 28.6682 34.6012 28.5958L34.5974 28.5893L29.1162 19.1049L29.1091 19.1096L28.7804 18.6389C28.2416 17.8157 27.3861 19.9208 27.3861 19.9208C26.3646 22.2664 27.5311 24.9332 27.9377 25.7392L35.551 38.9126C36.1502 39.9496 37.4777 40.3051 38.5161 39.7061C39.5541 39.1073 39.91 37.7812 39.3104 36.744L37.4068 33.45C37.3698 33.3702 37.3057 33.1535 37.6961 33.1526H40.2825C41.4813 33.1526 42.4531 32.1818 42.4531 30.9842C42.4531 29.7866 41.4813 28.816 40.2825 28.816ZM30.3369 31.7635C30.3369 31.7635 30.6103 33.1524 29.5527 33.1524H10.6237C9.42491 33.1524 8.45312 32.1816 8.45312 30.984C8.45312 29.7865 9.42491 28.8156 10.6237 28.8156H15.4901C16.2758 28.7703 16.4619 28.3171 16.4619 28.3171L16.4664 28.3194L22.8187 17.3279L22.8168 17.3275C22.9326 17.1152 22.8361 16.9144 22.8194 16.8828L20.7215 13.2527C20.1221 12.2158 20.4778 10.8894 21.516 10.2908C22.5542 9.69224 23.8817 10.0472 24.4811 11.0844L25.454 12.7679L26.4252 11.0874C27.0246 10.0504 28.3521 9.69486 29.3903 10.2938C30.4285 10.8928 30.7842 12.2186 30.1848 13.2557L21.3453 28.5506C21.3066 28.6438 21.2948 28.79 21.5824 28.8156H26.8661L26.8672 28.8672C26.8672 28.8672 29.921 28.9146 30.3369 31.7635Z" fill="white"/>
</g>
<defs>
<linearGradient id="paint0_linear_281_1074" x1="25.4531" y1="0" x2="25.4531" y2="50" gradientUnits="userSpaceOnUse">
<stop stop-color="#17C9FB"/>
<stop offset="1" stop-color="#1A74E8"/>
</linearGradient>
</defs>
</svg>
