<svg width="27" height="30" viewBox="0 0 27 30" fill="none" xmlns="http://www.w3.org/2000/svg">
<g id="Group">
<path id="Vector" d="M15.846 10.6077C14.6168 9.37857 12.9622 8.66893 11.2245 8.62555C9.48674 8.58217 7.79881 9.20837 6.50982 10.3746L6.26455 10.6077L2.43252 14.4411C1.18448 15.6913 0.474125 17.3796 0.45285 19.146C0.431578 20.9124 1.10107 22.6173 2.31863 23.8972C3.5362 25.1772 5.20553 25.931 6.97081 25.9979C8.73609 26.0648 10.4577 25.4396 11.7687 24.2556L12.0126 24.0225L14.888 21.1471C15.131 20.9033 15.2721 20.5761 15.2826 20.232C15.2931 19.8879 15.1723 19.5527 14.9446 19.2944C14.7169 19.0362 14.3994 18.8743 14.0567 18.8417C13.714 18.809 13.3717 18.9081 13.0993 19.1186L12.972 19.2311L10.0966 22.1065C9.35122 22.8562 8.34311 23.2861 7.28609 23.3049C6.22906 23.3237 5.2063 22.9299 4.43474 22.2072C3.66318 21.4845 3.20352 20.4896 3.15328 19.4336C3.10303 18.3776 3.46615 17.3436 4.16561 16.5509L4.34854 16.3571L8.18057 12.5251C8.55806 12.1475 9.00623 11.848 9.49947 11.6437C9.99272 11.4393 10.5214 11.3342 11.0553 11.3342C11.5892 11.3342 12.1178 11.4393 12.6111 11.6437C13.1043 11.848 13.5525 12.1475 13.93 12.5251C14.1842 12.7791 14.529 12.9218 14.8885 12.9217C15.2479 12.9215 15.5926 12.7786 15.8467 12.5244C16.1008 12.2701 16.2434 11.9253 16.2433 11.5659C16.2432 11.2064 16.1003 10.8618 15.846 10.6077ZM24.4694 1.98424C23.2403 0.755129 21.5857 0.0454928 19.8479 0.00211232C18.1102 -0.0412681 16.4222 0.584926 15.1333 1.75117L14.888 1.98424L12.014 4.86097C11.7709 5.10482 11.6299 5.43203 11.6193 5.77614C11.6088 6.12025 11.7297 6.45546 11.9574 6.71369C12.1851 6.97191 12.5025 7.13378 12.8452 7.16643C13.188 7.19908 13.5303 7.10005 13.8026 6.88946L13.93 6.77699L16.804 3.90297C17.5507 3.16116 18.556 2.73788 19.6083 2.72215C20.6607 2.70643 21.6782 3.0995 22.4467 3.81867C23.2152 4.53783 23.6748 5.52703 23.7288 6.57815C23.7828 7.62928 23.4271 8.66038 22.7364 9.45454L22.5534 9.64967L18.72 13.4831C17.9577 14.2451 16.9239 14.6733 15.846 14.6733C14.7681 14.6733 13.7343 14.2451 12.972 13.4831C12.8462 13.3572 12.6968 13.2573 12.5324 13.1891C12.368 13.1209 12.1918 13.0858 12.0138 13.0858C11.8358 13.0857 11.6595 13.1207 11.4951 13.1887C11.3306 13.2568 11.1812 13.3566 11.0553 13.4824C10.9294 13.6082 10.8295 13.7576 10.7613 13.922C10.6932 14.0864 10.658 14.2626 10.658 14.4406C10.6579 14.6186 10.6929 14.7948 10.761 14.9593C10.829 15.1237 10.9288 15.2732 11.0546 15.3991C12.2838 16.6282 13.9384 17.3378 15.6761 17.3812C17.4139 17.4246 19.1018 16.7984 20.3908 15.6321L20.6374 15.3991L24.4694 11.5657C25.7396 10.2952 26.4531 8.57217 26.4531 6.77564C26.4531 4.97911 25.7396 3.25477 24.4694 1.98424Z" fill="white"/>
</g>
</svg>
