<svg width="51" height="50" viewBox="0 0 51 50" fill="none" xmlns="http://www.w3.org/2000/svg">
<path d="M0.453125 9.89011C0.453125 4.42795 4.88108 0 10.3432 0H40.563C46.0252 0 50.4531 4.42795 50.4531 9.89011V40.1099C50.4531 45.572 46.0252 50 40.563 50H10.3432C4.88108 50 0.453125 45.572 0.453125 40.1099V9.89011Z" fill="#FF88FB"/>
<path d="M27.846 21.6077C26.6168 20.3786 24.9622 19.6689 23.2245 19.6256C21.4867 19.5822 19.7988 20.2084 18.5098 21.3746L18.2646 21.6077L14.4325 25.4411C13.1845 26.6913 12.4741 28.3796 12.4529 30.146C12.4316 31.9124 13.1011 33.6173 14.3186 34.8972C15.5362 36.1772 17.2055 36.931 18.9708 36.9979C20.7361 37.0648 22.4577 36.4396 23.7687 35.2556L24.0126 35.0225L26.888 32.1471C27.131 31.9033 27.2721 31.5761 27.2826 31.232C27.2931 30.8879 27.1723 30.5527 26.9446 30.2944C26.7169 30.0362 26.3994 29.8743 26.0567 29.8417C25.714 29.809 25.3717 29.9081 25.0993 30.1186L24.972 30.2311L22.0966 33.1065C21.3512 33.8562 20.3431 34.2861 19.2861 34.3049C18.2291 34.3237 17.2063 33.9299 16.4347 33.2072C15.6632 32.4845 15.2035 31.4896 15.1533 30.4336C15.103 29.3776 15.4662 28.3436 16.1656 27.5509L16.3485 27.3571L20.1806 23.5251C20.5581 23.1475 21.0062 22.848 21.4995 22.6437C21.9927 22.4393 22.5214 22.3342 23.0553 22.3342C23.5892 22.3342 24.1178 22.4393 24.6111 22.6437C25.1043 22.848 25.5525 23.1475 25.93 23.5251C26.1842 23.7791 26.529 23.9218 26.8885 23.9217C27.2479 23.9215 27.5926 23.7786 27.8467 23.5244C28.1008 23.2701 28.2434 22.9253 28.2433 22.5659C28.2432 22.2064 28.1003 21.8618 27.846 21.6077ZM36.4694 12.9842C35.2403 11.7551 33.5857 11.0455 31.8479 11.0021C30.1102 10.9587 28.4222 11.5849 27.1333 12.7512L26.888 12.9842L24.014 15.861C23.7709 16.1048 23.6299 16.432 23.6193 16.7761C23.6088 17.1203 23.7297 17.4555 23.9574 17.7137C24.1851 17.9719 24.5025 18.1338 24.8452 18.1664C25.188 18.1991 25.5303 18.1001 25.8026 17.8895L25.93 17.777L28.804 14.903C29.5507 14.1612 30.556 13.7379 31.6083 13.7222C32.6607 13.7064 33.6782 14.0995 34.4467 14.8187C35.2152 15.5378 35.6748 16.527 35.7288 17.5782C35.7828 18.6293 35.4271 19.6604 34.7364 20.4545L34.5534 20.6497L30.72 24.4831C29.9577 25.2451 28.9239 25.6733 27.846 25.6733C26.7681 25.6733 25.7343 25.2451 24.972 24.4831C24.8462 24.3572 24.6968 24.2573 24.5324 24.1891C24.368 24.1209 24.1918 24.0858 24.0138 24.0858C23.8358 24.0857 23.6595 24.1207 23.4951 24.1887C23.3306 24.2568 23.1812 24.3566 23.0553 24.4824C22.9294 24.6082 22.8295 24.7576 22.7613 24.922C22.6932 25.0864 22.658 25.2626 22.658 25.4406C22.6579 25.6186 22.6929 25.7948 22.761 25.9593C22.829 26.1237 22.9288 26.2732 23.0546 26.3991C24.2838 27.6282 25.9384 28.3378 27.6761 28.3812C29.4139 28.4246 31.1018 27.7984 32.3908 26.6321L32.6374 26.3991L36.4694 22.5657C37.7396 21.2952 38.4531 19.5722 38.4531 17.7756C38.4531 15.9791 37.7396 14.2548 36.4694 12.9842Z" fill="white"/>
</svg>
