<svg width="1214" height="707" viewBox="0 0 1214 707" fill="none" xmlns="http://www.w3.org/2000/svg">
<g filter="url(#filter0_f_6_11)">
<path fill-rule="evenodd" clip-rule="evenodd" d="M1204 387.999V457.716L1014.01 457.716L1204 647.702L1154.7 697L964.719 507.017L964.719 696.997H895.002L895.002 457.716H895.001L895.001 387.999L895.002 387.999V387.999L964.719 387.999L1204 387.999Z" fill="#3F69FF" fill-opacity="0.2"/>
</g>
<g filter="url(#filter1_f_6_11)">
<path fill-rule="evenodd" clip-rule="evenodd" d="M138.896 416.69C215.607 493.4 339.979 493.4 416.69 416.69C493.4 339.979 493.4 215.607 416.69 138.897C339.979 62.1861 215.607 62.1861 138.896 138.897C62.1859 215.607 62.1859 339.979 138.896 416.69ZM448.47 277.793L277.793 107.116L107.116 277.793L277.793 448.47L448.47 277.793Z" fill="#FF5400" fill-opacity="0.2"/>
</g>
<defs>
<filter id="filter0_f_6_11" x="885.001" y="377.999" width="328.998" height="329.001" filterUnits="userSpaceOnUse" color-interpolation-filters="sRGB">
<feFlood flood-opacity="0" result="BackgroundImageFix"/>
<feBlend mode="normal" in="SourceGraphic" in2="BackgroundImageFix" result="shape"/>
<feGaussianBlur stdDeviation="5" result="effect1_foregroundBlur_6_11"/>
</filter>
<filter id="filter1_f_6_11" x="71.3635" y="71.3638" width="412.859" height="412.859" filterUnits="userSpaceOnUse" color-interpolation-filters="sRGB">
<feFlood flood-opacity="0" result="BackgroundImageFix"/>
<feBlend mode="normal" in="SourceGraphic" in2="BackgroundImageFix" result="shape"/>
<feGaussianBlur stdDeviation="5" result="effect1_foregroundBlur_6_11"/>
</filter>
</defs>
</svg>
