<svg width="1318" height="868" viewBox="0 0 1318 868" fill="none" xmlns="http://www.w3.org/2000/svg">
<g filter="url(#filter0_f_475_2377)">
<path fill-rule="evenodd" clip-rule="evenodd" d="M1078.41 555.196L1070.92 624.509L882.029 604.099L1050.51 813.396L996.198 857.112L827.724 647.819L807.314 836.7L738.001 829.21L763.707 591.314L763.706 591.313L771.195 522L771.197 522L771.197 522L840.51 529.49L1078.41 555.196Z" fill="#3F69FF" fill-opacity="0.2"/>
</g>
<g filter="url(#filter1_f_475_2377)">
<path fill-rule="evenodd" clip-rule="evenodd" d="M932.474 385.422C1003.43 456.377 1118.47 456.377 1189.42 385.422C1260.38 314.468 1260.38 199.428 1189.42 128.474C1118.47 57.5198 1003.43 57.5198 932.474 128.474C861.52 199.428 861.52 314.468 932.474 385.422ZM1218.82 256.948L1060.95 99.0786L903.079 256.948L1060.95 414.818L1218.82 256.948Z" fill="#FF5400" fill-opacity="0.2"/>
</g>
<g filter="url(#filter2_f_475_2377)">
<path fill-rule="evenodd" clip-rule="evenodd" d="M465.149 469.115C465.149 343.429 363.261 241.54 237.575 241.54C233.778 241.54 230.003 241.633 226.252 241.817C255.207 217.586 292.511 203 333.221 203C425.331 203 500 277.669 500 369.779C500 408.226 486.99 443.635 465.133 471.843C465.144 470.935 465.149 470.025 465.149 469.115ZM465.133 471.843C463.672 596.272 362.35 696.689 237.575 696.689C111.889 696.689 10 594.801 10 469.115C10 347.226 105.826 247.718 226.252 241.817C189.693 272.411 166.442 318.379 166.442 369.779C166.442 461.888 241.111 536.558 333.221 536.558C386.883 536.558 434.626 511.214 465.133 471.843Z" fill="#5BFB67" fill-opacity="0.2"/>
</g>
<defs>
<filter id="filter0_f_475_2377" x="728.001" y="512" width="360.404" height="355.112" filterUnits="userSpaceOnUse" color-interpolation-filters="sRGB">
<feFlood flood-opacity="0" result="BackgroundImageFix"/>
<feBlend mode="normal" in="SourceGraphic" in2="BackgroundImageFix" result="shape"/>
<feGaussianBlur stdDeviation="5" result="effect1_foregroundBlur_475_2377"/>
</filter>
<filter id="filter1_f_475_2377" x="869.259" y="65.2588" width="383.38" height="383.38" filterUnits="userSpaceOnUse" color-interpolation-filters="sRGB">
<feFlood flood-opacity="0" result="BackgroundImageFix"/>
<feBlend mode="normal" in="SourceGraphic" in2="BackgroundImageFix" result="shape"/>
<feGaussianBlur stdDeviation="5" result="effect1_foregroundBlur_475_2377"/>
</filter>
<filter id="filter2_f_475_2377" x="0" y="193" width="510" height="513.689" filterUnits="userSpaceOnUse" color-interpolation-filters="sRGB">
<feFlood flood-opacity="0" result="BackgroundImageFix"/>
<feBlend mode="normal" in="SourceGraphic" in2="BackgroundImageFix" result="shape"/>
<feGaussianBlur stdDeviation="5" result="effect1_foregroundBlur_475_2377"/>
</filter>
</defs>
</svg>
