<svg width="1197" height="881" viewBox="0 0 1197 881" fill="none" xmlns="http://www.w3.org/2000/svg">
<path fill-rule="evenodd" clip-rule="evenodd" d="M885.409 776.773C942.621 833.985 1035.38 833.985 1092.59 776.773C1149.8 719.562 1149.8 626.803 1092.59 569.591C1035.38 512.379 942.621 512.379 885.409 569.591C828.197 626.803 828.197 719.562 885.409 776.773ZM1116.29 673.182L989 545.889L861.707 673.182L989 800.475L1116.29 673.182Z" fill="#FF5400"/>
<path fill-rule="evenodd" clip-rule="evenodd" d="M159.033 318.067C246.865 318.067 318.067 246.865 318.067 159.033C318.067 156.38 318.002 153.742 317.874 151.121C334.807 171.356 345 197.424 345 225.873C345 290.241 292.82 342.421 228.452 342.421C201.584 342.421 176.84 333.33 157.127 318.056C157.762 318.063 158.397 318.067 159.033 318.067ZM157.127 318.056C70.1738 317.034 0 246.229 0 159.033C0 71.2017 71.2017 0 159.033 0C244.212 0 313.75 66.9649 317.874 151.121C296.494 125.573 264.37 109.325 228.452 109.325C164.084 109.325 111.903 161.505 111.903 225.873C111.903 263.373 129.614 296.737 157.127 318.056Z" fill="#5BFB67"/>
</svg>
