<svg width="1088" height="1238" viewBox="0 0 1088 1238" fill="none" xmlns="http://www.w3.org/2000/svg">
<g filter="url(#filter0_f_305_467)">
<path fill-rule="evenodd" clip-rule="evenodd" d="M1043.15 264.115C1043.15 138.429 941.261 36.5409 815.575 36.5409C811.778 36.5409 808.003 36.6338 804.252 36.8176C833.207 12.5862 870.511 -1.99994 911.221 -1.99994C1003.33 -1.99993 1078 72.6696 1078 164.779C1078 203.226 1064.99 238.635 1043.13 266.843C1043.14 265.935 1043.15 265.026 1043.15 264.115ZM1043.13 266.843C1041.67 391.272 940.35 491.69 815.575 491.69C689.889 491.69 588 389.801 588 264.115C588 142.226 683.826 42.7183 804.252 36.8176C767.693 67.4112 744.442 113.38 744.442 164.779C744.442 256.889 819.111 331.558 911.221 331.558C964.883 331.558 1012.63 306.214 1043.13 266.843Z" fill="#5BFB67" fill-opacity="0.2"/>
</g>
<g filter="url(#filter1_f_305_467)">
<path fill-rule="evenodd" clip-rule="evenodd" d="M306.946 818.188C304.342 818.022 302.506 815.507 303.168 812.983C323.037 737.275 303.301 653.327 243.961 593.987C155.05 505.076 10.8977 505.076 -78.013 593.987C-166.924 682.898 -166.924 827.05 -78.0129 915.961C-18.6722 975.302 65.2761 995.037 140.985 975.168C143.509 974.505 146.024 976.341 146.19 978.946C148.449 1014.4 163.125 1049.21 190.221 1076.31C249.339 1135.42 345.189 1135.42 404.308 1076.31C463.426 1017.19 463.426 921.337 404.308 862.219C377.212 835.123 342.401 820.447 306.946 818.188Z" fill="#FF88FB" fill-opacity="0.2"/>
</g>
<defs>
<filter id="filter0_f_305_467" x="578" y="-12" width="510" height="513.69" filterUnits="userSpaceOnUse" color-interpolation-filters="sRGB">
<feFlood flood-opacity="0" result="BackgroundImageFix"/>
<feBlend mode="normal" in="SourceGraphic" in2="BackgroundImageFix" result="shape"/>
<feGaussianBlur stdDeviation="5" result="effect1_foregroundBlur_305_467"/>
</filter>
<filter id="filter1_f_305_467" x="-154.696" y="517.304" width="613.343" height="613.341" filterUnits="userSpaceOnUse" color-interpolation-filters="sRGB">
<feFlood flood-opacity="0" result="BackgroundImageFix"/>
<feBlend mode="normal" in="SourceGraphic" in2="BackgroundImageFix" result="shape"/>
<feGaussianBlur stdDeviation="5" result="effect1_foregroundBlur_305_467"/>
</filter>
</defs>
</svg>
