<svg width="17" height="24" viewBox="0 0 17 24" fill="none" xmlns="http://www.w3.org/2000/svg">
<path d="M13.9936 5.20986L0 19.3484L8.17661 23.9393C8.31891 24.0192 8.4921 24.0203 8.63533 23.9421L16.752 19.51C16.9292 19.4132 17.0262 19.2146 16.9938 19.0147L14.7992 5.46932C14.737 5.08508 14.267 4.9337 13.9936 5.20986Z" fill="#FFCB2D"/>
<path d="M8.11148 3.8296L0 19.2531L11.0228 8.35095C11.1739 8.20145 11.2079 7.96943 11.1061 7.78256L8.94801 3.82333C8.76633 3.49001 8.28819 3.4936 8.11148 3.8296Z" fill="#FEA50D"/>
<path d="M2.9162 0.405159L0.0474872 19.3007L6.81609 6.46121C6.88934 6.32226 6.88964 6.156 6.81689 6.01679L3.80617 0.255532C3.59315 -0.152105 2.98529 -0.049908 2.9162 0.405159Z" fill="#F6820C"/>
</svg>
