<svg xmlns="http://www.w3.org/2000/svg" width="600.238" height="600.238" viewBox="0 0 158.813 158.813"><defs><linearGradient id="a" x1="0" x2="1" y1="0" y2="0" gradientTransform="rotate(90 -69.144 543.032) scale(597.46785)" gradientUnits="userSpaceOnUse" spreadMethod="pad"><stop offset="0" stop-color="#12d8b5"/><stop offset=".135" stop-color="#12d8b5"/><stop offset=".399" stop-color="#10d896"/><stop offset=".5" stop-color="#10d896"/><stop offset=".518" stop-color="#10d896"/><stop offset=".91" stop-color="#0ed86c"/><stop offset="1" stop-color="#0ed86c"/></linearGradient></defs><g transform="translate(-45.976 -161.094) scale(.26458)"><rect width="600.238" height="600.238" x="173.767" y="608.86" fill="url(#a)" rx="92.819" ry="92.819"/><path fill="#fff" d="M464.798 1003.43c5.615-5.003 12.591-5.014 18.171-.01l32.071 32.055c11.408 11.434 26.545 17.678 42.673 17.678 16.12 0 31.275-6.27 42.682-17.679 11.39-11.38 17.679-26.58 17.661-42.655.02-16.137-6.27-31.283-17.66-42.69l-32.01-32.019c-5.066-5.598-5.064-12.63-.044-18.229l32.054-32.027c11.39-11.4 17.661-26.581 17.661-42.683 0-16.13-6.27-31.284-17.66-42.657-11.409-11.408-26.581-17.679-42.684-17.679-16.129-.027-31.301 6.27-42.674 17.68l-32.072 32.053c-5.642 5.04-12.684 5.496-18.245.427l-31.786-31.75c-11.326-11.308-26.374-17.539-42.408-17.539-15.998 0-31.029 6.204-42.346 17.539-11.352 11.36-17.6 26.382-17.6 42.407 0 16.034 6.248 31.082 17.565 42.408l31.847 31.821c4.955 5.527 4.467 12.525-.457 18.114l-32.134 32.143c-11.39 11.408-17.67 26.553-17.67 42.691 0 16.102 6.28 31.248 17.652 42.656 23.525 23.551 61.823 23.551 85.339 0zm-70.75 99.887c-30.062 0-58.607-11.989-80.42-33.792-21.032-21.01-33.02-48.562-33.783-77.557-.755-29.102 9.856-56.146 29.922-76.228.934-.951 1.812-1.812 2.517-2.435a70.857 70.857 0 0 1 5.199-4.322c-1.952-1.435-3.682-2.92-5.174-4.264-.73-.664-1.6-1.55-2.559-2.493-20.049-20.057-30.66-47.101-29.905-76.236.762-28.987 12.75-56.515 33.784-77.524 21.78-21.804 50.357-33.825 80.418-33.825 27.987 0 54.022 10.652 73.342 29.963.943.943 1.845 1.837 2.493 2.55 1.5 1.657 2.845 3.321 4.001 4.978a58.075 58.075 0 0 1 4.035-4.978c.631-.713 1.55-1.607 2.517-2.575 19.295-19.286 45.33-29.938 73.309-29.938 30.062 0 58.622 12.021 80.426 33.825 21.034 21.009 33.022 48.537 33.76 77.524.78 29.135-9.856 56.179-29.897 76.236-.943.943-1.837 1.829-2.526 2.46a65.105 65.105 0 0 1-5.199 4.297c1.944 1.427 3.658 2.92 5.158 4.289.73.656 1.648 1.55 2.591 2.517 20.017 20.033 30.652 47.077 29.873 76.179-.738 28.996-12.726 56.548-33.76 77.557-21.804 21.803-50.364 33.792-80.426 33.792-27.979 0-54.014-10.644-73.366-29.93-.91-.951-1.829-1.862-2.46-2.55-1.484-1.69-2.83-3.322-4.035-4.945-1.156 1.623-2.5 3.255-4.001 4.92-.648.713-1.55 1.624-2.526 2.6-19.287 19.261-45.322 29.905-73.309 29.905"/></g></svg>