<svg width="70" height="60" viewBox="0 0 70 60" fill="none" xmlns="http://www.w3.org/2000/svg">
<g id="Logo">
<g id="Vector">
<path d="M19.2901 31.4596C22.4346 31.4596 25.2142 29.9075 26.8951 27.5324C27.5883 28.512 28.4685 29.3516 29.4841 30C26.913 31.6416 25.2099 34.5083 25.2099 37.7702C25.2099 42.8677 29.3692 47 34.5 47C37.6445 47 40.4241 45.4479 42.1049 43.0728C43.7858 45.4479 46.5654 47 49.7099 47C54.8407 47 59 42.8677 59 37.7702C59 32.6727 54.8407 28.5404 49.7099 28.5404C46.5654 28.5404 43.7858 30.0925 42.1049 32.4676C41.4117 31.488 40.5315 30.6484 39.5159 30C42.087 28.3584 43.7901 25.4917 43.7901 22.2298C43.7901 17.1323 39.6308 13 34.5 13C31.3555 13 28.576 14.5521 26.8951 16.9272C25.2142 14.5521 22.4346 13 19.2901 13C14.1593 13 10 17.1323 10 22.2298C10 27.3273 14.1593 31.4596 19.2901 31.4596Z" fill="white"/>
<path d="M19.3192 16.8945L23.4488 26.0431H22.4996L21.1067 23.0425H17.2853L15.9047 26.0431H14.9185L19.0974 16.8945H19.3192ZM19.2083 18.8418L17.6921 22.1485H20.7122L19.2083 18.8418Z" fill="white"/>
<path d="M32.0284 33.477H33.7912C34.8349 33.477 35.517 33.5178 35.8375 33.5994C36.158 33.6811 36.4497 33.824 36.7127 34.0281C36.9839 34.2322 37.1935 34.4894 37.3414 34.7997C37.4893 35.1017 37.5633 35.4406 37.5633 35.8162C37.5633 36.4203 37.3989 36.9143 37.0702 37.298C36.7415 37.6818 36.3265 37.9267 35.8252 38.0329C35.3321 38.1308 34.5719 38.1798 33.5447 38.1798H32.916V42.2703H32.0284V33.477ZM32.916 34.3343V37.3348H34.4075C35.3033 37.3511 35.8991 37.2082 36.195 36.9061C36.4908 36.5959 36.6387 36.2326 36.6387 35.8162C36.6387 34.8282 35.9197 34.3343 34.4815 34.3343H32.916Z" fill="white"/>
<path d="M32.0284 17.5559H33.7912C34.8349 17.5559 35.517 17.5967 35.8375 17.6784C36.158 17.76 36.4497 17.9029 36.7127 18.107C36.9839 18.3111 37.1935 18.5683 37.3414 18.8786C37.4893 19.1807 37.5633 19.5195 37.5633 19.8951C37.5633 20.4992 37.3989 20.9932 37.0702 21.3769C36.7415 21.7607 36.3265 22.0056 35.8252 22.1118C35.3321 22.2097 34.5719 22.2587 33.5447 22.2587H32.916V26.3492H32.0284V17.5559ZM32.916 18.4132V21.4137H34.4075C35.3033 21.43 35.8991 21.2871 36.195 20.985C36.4908 20.6748 36.6387 20.3115 36.6387 19.8951C36.6387 18.9071 35.9197 18.4132 34.4815 18.4132H32.916Z" fill="white"/>
<path d="M47.1414 40.6292L47.8933 40.1883C48.4193 41.1518 49.0315 41.6335 49.7301 41.6335C50.1821 41.6335 50.5683 41.4906 50.8888 41.2048C51.2093 40.9191 51.3696 40.5639 51.3696 40.1393C51.3696 39.8046 51.234 39.4658 50.9628 39.1228C50.6916 38.7799 50.2396 38.3758 49.6068 37.9104C48.9822 37.4368 48.559 37.0858 48.3371 36.8572C48.1234 36.6204 47.9632 36.3714 47.8563 36.1101C47.7577 35.8406 47.7084 35.5712 47.7084 35.3018C47.7084 34.7303 47.9098 34.2485 48.3125 33.8566C48.7234 33.4566 49.237 33.2565 49.8533 33.2565C50.3382 33.2565 50.7614 33.379 51.123 33.6239C51.4846 33.8607 51.8339 34.2159 52.1708 34.6894L51.4558 35.2405C51.2257 34.9303 50.9874 34.6731 50.7409 34.469C50.4943 34.2649 50.1903 34.1628 49.8287 34.1628C49.4753 34.1628 49.1836 34.2689 48.9535 34.4812C48.7316 34.6935 48.6206 34.9629 48.6206 35.2895C48.6206 35.6161 48.7192 35.9019 48.9165 36.1468C49.1219 36.3836 49.578 36.7633 50.2848 37.2858C50.9997 37.8083 51.5175 38.2901 51.838 38.7309C52.1667 39.1718 52.3311 39.6372 52.3311 40.1271C52.3311 40.7639 52.0804 41.3191 51.5791 41.7927C51.086 42.2581 50.5108 42.4908 49.8533 42.4908C48.6946 42.4908 47.7906 41.8703 47.1414 40.6292Z" fill="white"/>
</g>
</g>
</svg>
