<svg width="47" height="34" viewBox="0 0 47 34" fill="none" xmlns="http://www.w3.org/2000/svg">
<g id="Group 2363">
<path id="Union" fill-rule="evenodd" clip-rule="evenodd" d="M8.9326 19.0306C11.4703 19.0306 13.7609 17.9511 15.387 16.2178C15.8534 15.7206 16.6811 15.7206 17.1475 16.2177C17.2013 16.275 17.2558 16.3316 17.3109 16.3874C17.7864 16.8686 17.775 17.7043 17.2866 18.1718C15.5501 19.8342 14.4654 22.1966 14.4654 24.8175C14.4654 29.8499 18.4647 33.9294 23.398 33.9294C25.9357 33.9294 28.2263 32.85 29.8524 31.1166C30.3189 30.6194 31.1466 30.6194 31.613 31.1166C33.2391 32.85 35.5297 33.9294 38.0674 33.9294C43.0007 33.9294 47 29.8499 47 24.8175C47 19.785 43.0007 15.7055 38.0674 15.7055C35.5297 15.7055 33.2391 16.7849 31.613 18.5183C31.1466 19.0155 30.3189 19.0155 29.8525 18.5184C29.7987 18.4611 29.7442 18.4045 29.6891 18.3486C29.2136 17.8674 29.225 17.0318 29.7134 16.5643C31.4499 14.9019 32.5346 12.5395 32.5346 9.91864C32.5346 4.88622 28.5353 0.806641 23.602 0.806641C21.0643 0.806641 18.7737 1.88613 17.1476 3.6195C16.6811 4.11668 15.8534 4.11668 15.387 3.6195C13.7609 1.88613 11.4703 0.806641 8.9326 0.806641C3.99926 0.806641 0 4.88622 0 9.91864C0 14.9511 3.99926 19.0306 8.9326 19.0306Z" fill="white"/>
<g id="Group 2330">
<path id="A" d="M12 13.228H11.1066L9.99719 10.562H7.03226L5.93268 13.228H5L8.39691 4.94727H8.65217L12 13.228ZM9.61431 9.61536L8.52454 6.92767L7.42496 9.61536H9.61431Z" fill="#212121"/>
<path id="P" d="M21 5.98242H22.6199C23.5414 5.98242 24.1461 6.01542 24.4341 6.08141C24.7221 6.1474 24.9849 6.26618 25.2225 6.43775C25.4672 6.60932 25.658 6.82378 25.7948 7.08114C25.9316 7.3385 26 7.62885 26 7.9522C26 8.27555 25.9316 8.5659 25.7948 8.82326C25.6652 9.08061 25.4744 9.29508 25.2225 9.46665C24.9777 9.63162 24.6753 9.75041 24.3153 9.82299C23.9554 9.88898 23.3182 9.92198 22.4039 9.92198H21.9287V13.228H21V5.98242ZM21.9287 9.10041H23.1598C23.887 9.11361 24.3801 9.00803 24.6393 8.78366C24.9057 8.5593 25.0389 8.27885 25.0389 7.9423C25.0389 7.19002 24.4341 6.81389 23.2246 6.81389H21.9287V9.10041Z" fill="#212121"/>
<path id="P_2" d="M21 21.5088H22.6199C23.5414 21.5088 24.1461 21.5465 24.4341 21.6219C24.7221 21.6973 24.9849 21.8331 25.2225 22.0292C25.4672 22.2252 25.658 22.4703 25.7948 22.7645C25.9316 23.0586 26 23.3904 26 23.76C26 24.1295 25.9316 24.4613 25.7948 24.7555C25.6652 25.0496 25.4744 25.2947 25.2225 25.4908C24.9777 25.6793 24.6753 25.8151 24.3153 25.898C23.9554 25.9734 23.3182 26.0111 22.4039 26.0111H21.9287V29.7895H21V21.5088ZM21.9287 25.0722H23.1598C23.887 25.0873 24.3801 24.9666 24.6393 24.7102C24.9057 24.4538 25.0389 24.1333 25.0389 23.7487C25.0389 22.8889 24.4341 22.459 23.2246 22.459H21.9287V25.0722Z" fill="#212121"/>
<path id="S" d="M40.0961 23.4388C39.791 23.0506 39.5317 22.7919 39.3181 22.6625C39.1045 22.5259 38.8528 22.4576 38.5629 22.4576C38.2807 22.4576 38.0404 22.5439 37.8421 22.7164C37.6514 22.8889 37.5561 23.1117 37.5561 23.3849C37.5561 23.6508 37.6476 23.8845 37.8307 24.0857C38.0137 24.287 38.4333 24.6176 39.0892 25.0777C39.7529 25.5305 40.2372 25.9582 40.5423 26.3608C40.8474 26.7633 41 27.1874 41 27.6331C41 28.2153 40.7597 28.7221 40.2792 29.1533C39.8063 29.5774 39.2532 29.7895 38.6201 29.7895C37.5065 29.7895 36.6331 29.2037 36 28.032L36.8352 27.5791C37.331 28.4489 37.8879 28.8838 38.5057 28.8838C38.9024 28.8838 39.2418 28.7652 39.524 28.528C39.8063 28.2908 39.9474 28.014 39.9474 27.6978C39.9474 27.3815 39.8291 27.0832 39.5927 26.8028C39.3562 26.5153 38.9481 26.1667 38.3684 25.757C37.7887 25.3401 37.3883 25.0238 37.167 24.8081C36.9535 24.5925 36.7971 24.3625 36.6979 24.1181C36.5988 23.8737 36.5492 23.6293 36.5492 23.3849C36.5492 22.8602 36.7399 22.4181 37.1213 22.0587C37.5103 21.6921 38.0099 21.5088 38.6201 21.5088C39.0931 21.5088 39.505 21.6238 39.8558 21.8538C40.2067 22.0766 40.55 22.4109 40.8856 22.8566L40.0961 23.4388Z" fill="#212121"/>
</g>
</g>
</svg>
