<svg width="98" height="67" viewBox="0 0 98 67" fill="none" xmlns="http://www.w3.org/2000/svg">
<path fill-rule="evenodd" clip-rule="evenodd" d="M18.9354 36.863C24.1728 36.863 28.9001 34.6795 32.2562 31.1732C33.2188 30.1676 34.927 30.1675 35.8896 31.1732C36.0005 31.2891 36.1129 31.4035 36.2268 31.5165C37.2081 32.4898 37.1845 34.1801 36.1766 35.1259C32.5928 38.4884 30.3541 43.2671 30.3541 48.5685C30.3541 58.7479 38.6079 67 48.7895 67C54.0269 67 58.7542 64.8164 62.1103 61.3102C63.073 60.3045 64.7812 60.3045 65.7438 61.3102C69.0999 64.8164 73.8272 67 79.0646 67C89.2462 67 97.5 58.7479 97.5 48.5685C97.5 38.389 89.2462 30.137 79.0646 30.137C73.8272 30.137 69.0999 32.3205 65.7438 35.8268C64.7812 36.8324 63.073 36.8325 62.1104 35.8268C61.9995 35.7109 61.8871 35.5965 61.7732 35.4835C60.7918 34.5102 60.8155 32.8198 61.8234 31.8741C65.4072 28.5116 67.6459 23.7329 67.6459 18.4315C67.6459 8.25207 59.3921 0 49.2105 0C43.9731 0 39.2458 2.18356 35.8897 5.68979C34.9271 6.69546 33.2188 6.69546 32.2562 5.68979C28.9001 2.18356 24.1728 0 18.9354 0C8.7538 0 0.5 8.25207 0.5 18.4315C0.5 28.611 8.7538 36.863 18.9354 36.863Z" fill="url(#paint0_radial_532_542)"/>
<path d="M18.5114 8.96328L25.8814 25.3973H24.1874L21.7014 20.0073H14.8814L12.4174 25.3973H10.6574L18.1154 8.96328H18.5114ZM18.3134 12.4613L15.6074 18.4013H20.9974L18.3134 12.4613Z" fill="black"/>
<path d="M44.4174 9.60128H47.5634C49.4261 9.60128 50.6434 9.67462 51.2154 9.82129C51.7874 9.96795 52.3081 10.2246 52.7774 10.5913C53.2614 10.958 53.6354 11.42 53.8994 11.9773C54.1634 12.52 54.2954 13.1286 54.2954 13.8033C54.2954 14.8886 54.0021 15.776 53.4154 16.4653C52.8288 17.1546 52.0881 17.5946 51.1934 17.7853C50.3134 17.9613 48.9568 18.0493 47.1234 18.0493H46.0014V25.3973H44.4174V9.60128ZM46.0014 11.1413V16.5313H48.6634C50.2621 16.5606 51.3254 16.304 51.8534 15.7613C52.3814 15.204 52.6454 14.5513 52.6454 13.8033C52.6454 12.0286 51.3621 11.1413 48.7954 11.1413H46.0014Z" fill="black"/>
<path d="M44.4174 40.969H47.5634C49.4261 40.969 50.6434 41.0423 51.2154 41.189C51.7874 41.3356 52.3081 41.5923 52.7774 41.959C53.2614 42.3256 53.6354 42.7876 53.8994 43.345C54.1634 43.8876 54.2954 44.4963 54.2954 45.171C54.2954 46.2563 54.0021 47.1436 53.4154 47.833C52.8288 48.5223 52.0881 48.9623 51.1934 49.153C50.3134 49.329 48.9568 49.417 47.1234 49.417H46.0014V56.765H44.4174V40.969ZM46.0014 42.509V47.899H48.6634C50.2621 47.9283 51.3254 47.6716 51.8534 47.129C52.3814 46.5716 52.6454 45.919 52.6454 45.171C52.6454 43.3963 51.3621 42.509 48.7954 42.509H46.0014Z" fill="black"/>
<path d="M74.9789 53.817L76.3209 53.025C77.2595 54.7556 78.3522 55.621 79.5989 55.621C80.4055 55.621 81.0949 55.3643 81.6669 54.851C82.2389 54.3376 82.5249 53.6996 82.5249 52.937C82.5249 52.3356 82.2829 51.727 81.7989 51.111C81.3149 50.495 80.5082 49.769 79.3789 48.933C78.2642 48.0823 77.5089 47.4516 77.1129 47.041C76.7315 46.6156 76.4455 46.1683 76.2549 45.699C76.0789 45.215 75.9909 44.731 75.9909 44.247C75.9909 43.2203 76.3502 42.355 77.0689 41.651C77.8022 40.9323 78.7189 40.573 79.8189 40.573C80.6842 40.573 81.4395 40.793 82.0849 41.233C82.7302 41.6583 83.3535 42.2963 83.9549 43.147L82.6789 44.137C82.2682 43.5796 81.8429 43.1176 81.4029 42.751C80.9629 42.3843 80.4202 42.201 79.7749 42.201C79.1442 42.201 78.6235 42.3916 78.2129 42.773C77.8169 43.1543 77.6189 43.6383 77.6189 44.225C77.6189 44.8116 77.7949 45.325 78.1469 45.765C78.5135 46.1903 79.3275 46.8723 80.5889 47.811C81.8649 48.7496 82.7889 49.615 83.3609 50.407C83.9475 51.199 84.2409 52.035 84.2409 52.915C84.2409 54.059 83.7935 55.0563 82.8989 55.907C82.0189 56.743 80.9922 57.161 79.8189 57.161C77.7509 57.161 76.1375 56.0463 74.9789 53.817Z" fill="black"/>
<defs>
<radialGradient id="paint0_radial_532_542" cx="0" cy="0" r="1" gradientUnits="userSpaceOnUse" gradientTransform="translate(13.75 16) rotate(21.0923) scale(37.5133 54.3103)">
<stop stop-color="#FF88FB"/>
<stop offset="0.404806" stop-color="#FF88FB"/>
<stop offset="1" stop-color="#5BFB67"/>
</radialGradient>
</defs>
</svg>
