<svg width="97" height="68" viewBox="0 0 97 68" fill="none" xmlns="http://www.w3.org/2000/svg">
<g id="Group 2331">
<path id="Union" fill-rule="evenodd" clip-rule="evenodd" d="M18.4354 37.363C23.6728 37.363 28.4001 35.1795 31.7562 31.6732C32.7188 30.6676 34.427 30.6675 35.3896 31.6732C35.5005 31.7891 35.6129 31.9035 35.7268 32.0165C36.7081 32.9898 36.6845 34.6802 35.6766 35.6259C32.0928 38.9884 29.8541 43.7671 29.8541 49.0685C29.8541 59.2479 38.1079 67.5 48.2895 67.5C53.5269 67.5 58.2542 65.3164 61.6103 61.8102C62.573 60.8045 64.2812 60.8045 65.2438 61.8102C68.5999 65.3164 73.3272 67.5 78.5646 67.5C88.7462 67.5 97 59.2479 97 49.0685C97 38.889 88.7462 30.637 78.5646 30.637C73.3272 30.637 68.5999 32.8205 65.2438 36.3268C64.2812 37.3324 62.573 37.3325 61.6104 36.3268C61.4995 36.2109 61.3871 36.0965 61.2732 35.9835C60.2918 35.0102 60.3155 33.3198 61.3234 32.3741C64.9072 29.0116 67.1459 24.2329 67.1459 18.9315C67.1459 8.75207 58.8921 0.5 48.7105 0.5C43.4731 0.5 38.7458 2.68356 35.3897 6.18979C34.4271 7.19546 32.7188 7.19546 31.7562 6.18979C28.4001 2.68356 23.6728 0.5 18.4354 0.5C8.2538 0.5 0 8.75207 0 18.9315C0 29.111 8.2538 37.363 18.4354 37.363Z" fill="#FF88FB"/>
<g id="Group 2330">
<path id="A" d="M25.6015 25.8973H23.5995L21.1135 20.5073H14.4695L12.0055 25.8973H9.91553L17.5275 9.15527H18.0995L25.6015 25.8973ZM20.2555 18.5933L17.8135 13.1593L15.3495 18.5933H20.2555Z" fill="black"/>
<path id="P" d="M43.7637 9.79346H47.0637C48.941 9.79346 50.173 9.86679 50.7597 10.0135C51.3463 10.1601 51.8817 10.4241 52.3657 10.8055C52.8643 11.1868 53.253 11.6635 53.5317 12.2355C53.8103 12.8075 53.9497 13.4528 53.9497 14.1715C53.9497 14.8901 53.8103 15.5355 53.5317 16.1075C53.2677 16.6795 52.879 17.1561 52.3657 17.5375C51.867 17.9041 51.251 18.1681 50.5177 18.3295C49.7843 18.4761 48.4863 18.5495 46.6237 18.5495H45.6557V25.8975H43.7637V9.79346ZM45.6557 16.7235H48.1637C49.645 16.7528 50.6497 16.5181 51.1777 16.0195C51.7203 15.5208 51.9917 14.8975 51.9917 14.1495C51.9917 12.4775 50.7597 11.6415 48.2957 11.6415H45.6557V16.7235Z" fill="black"/>
<path id="P_2" d="M43.7637 41.1611H47.0637C48.941 41.1611 50.173 41.2345 50.7597 41.3811C51.3463 41.5278 51.8817 41.7918 52.3657 42.1731C52.8643 42.5545 53.253 43.0311 53.5317 43.6031C53.8103 44.1751 53.9497 44.8205 53.9497 45.5391C53.9497 46.2578 53.8103 46.9031 53.5317 47.4751C53.2677 48.0471 52.879 48.5238 52.3657 48.9051C51.867 49.2718 51.251 49.5358 50.5177 49.6971C49.7843 49.8438 48.4863 49.9171 46.6237 49.9171H45.6557V57.2651H43.7637V41.1611ZM45.6557 48.0911H48.1637C49.645 48.1205 50.6497 47.8858 51.1777 47.3871C51.7203 46.8885 51.9917 46.2651 51.9917 45.5171C51.9917 43.8451 50.7597 43.0091 48.2957 43.0091H45.6557V48.0911Z" fill="black"/>
<path id="S" d="M82.1568 44.7031C81.5701 43.9111 81.0714 43.3831 80.6608 43.1191C80.2501 42.8405 79.7661 42.7011 79.2088 42.7011C78.6661 42.7011 78.2041 42.8771 77.8228 43.2291C77.4561 43.5811 77.2728 44.0358 77.2728 44.5931C77.2728 45.1358 77.4488 45.6125 77.8008 46.0231C78.1528 46.4338 78.9594 47.1085 80.2208 48.0471C81.4968 48.9711 82.4281 49.8438 83.0148 50.6651C83.6014 51.4865 83.8948 52.3518 83.8948 53.2611C83.8948 54.4491 83.4328 55.4831 82.5088 56.3631C81.5994 57.2285 80.5361 57.6611 79.3188 57.6611C77.1774 57.6611 75.4981 56.4658 74.2808 54.0751L75.8868 53.1511C76.8401 54.9258 77.9108 55.8131 79.0988 55.8131C79.8614 55.8131 80.5141 55.5711 81.0568 55.0871C81.5994 54.6031 81.8708 54.0385 81.8708 53.3931C81.8708 52.7478 81.6434 52.1391 81.1888 51.5671C80.7341 50.9805 79.9494 50.2691 78.8348 49.4331C77.7201 48.5825 76.9501 47.9371 76.5248 47.4971C76.1141 47.0571 75.8134 46.5878 75.6228 46.0891C75.4321 45.5905 75.3368 45.0918 75.3368 44.5931C75.3368 43.5225 75.7034 42.6205 76.4368 41.8871C77.1848 41.1391 78.1454 40.7651 79.3188 40.7651C80.2281 40.7651 81.0201 40.9998 81.6948 41.4691C82.3694 41.9238 83.0294 42.6058 83.6748 43.5151L82.1568 44.7031Z" fill="black"/>
</g>
</g>
</svg>
