<svg width="21" height="25" viewBox="0 0 21 25" fill="none" xmlns="http://www.w3.org/2000/svg">
<path fill-rule="evenodd" clip-rule="evenodd" d="M4.14619 10.0785C3.55408 10.0785 2.98622 10.2981 2.56753 10.6888C2.14884 11.0796 1.91363 11.6096 1.91363 12.1623C1.91363 12.7149 2.14884 13.2449 2.56753 13.6357C2.98622 14.0265 3.55408 14.246 4.14619 14.246C4.73831 14.246 5.30617 14.0265 5.72485 13.6357C6.14354 13.2449 6.37876 12.7149 6.37876 12.1623C6.37876 11.6096 6.14354 11.0796 5.72485 10.6888C5.30617 10.2981 4.73831 10.0785 4.14619 10.0785ZM1.21439 9.42591C1.99195 8.70019 3.04655 8.29248 4.14619 8.29248C5.24583 8.29248 6.30043 8.70019 7.07799 9.42591C7.85555 10.1516 8.29238 11.1359 8.29238 12.1623C8.29238 13.1886 7.85555 14.1729 7.07799 14.8986C6.30043 15.6243 5.24583 16.032 4.14619 16.032C3.04655 16.032 1.99195 15.6243 1.21439 14.8986C0.43683 14.1729 0 13.1886 0 12.1623C0 11.1359 0.43683 10.1516 1.21439 9.42591Z" fill="white"/>
<path fill-rule="evenodd" clip-rule="evenodd" d="M14.1994 4.81907C14.5025 5.23928 14.3972 5.81838 13.9643 6.11252L7.58564 10.4466C7.15274 10.7408 6.55615 10.6386 6.25312 10.2184C5.95009 9.79817 6.05537 9.21907 6.48827 8.92493L12.8669 4.59082C13.2998 4.29667 13.8964 4.39887 14.1994 4.81907ZM6.25312 14.1064C6.55615 13.6862 7.15274 13.584 7.58564 13.8782L13.9643 18.2123C14.3972 18.5064 14.5025 19.0855 14.1994 19.5057C13.8964 19.926 13.2998 20.0281 12.8669 19.734L6.48827 15.3999C6.05537 15.1058 5.95009 14.5267 6.25312 14.1064Z" fill="white"/>
<path fill-rule="evenodd" clip-rule="evenodd" d="M16.5846 1.8711C16.032 1.8711 15.502 2.10109 15.1112 2.51047C14.7204 2.91986 14.5009 3.4751 14.5009 4.05405C14.5009 4.63301 14.7204 5.18825 15.1112 5.59763C15.502 6.00702 16.032 6.23701 16.5846 6.23701C17.1373 6.23701 17.6673 6.00702 18.058 5.59763C18.4488 5.18825 18.6684 4.63301 18.6684 4.05405C18.6684 3.4751 18.4488 2.91986 18.058 2.51047C17.6673 2.10109 17.1373 1.8711 16.5846 1.8711ZM13.8483 1.18741C14.574 0.427122 15.5583 0 16.5846 0C17.611 0 18.5952 0.427122 19.321 1.18741C20.0467 1.94769 20.4544 2.97885 20.4544 4.05405C20.4544 5.12926 20.0467 6.16042 19.321 6.9207C18.5952 7.68099 17.611 8.10811 16.5846 8.10811C15.5583 8.10811 14.574 7.68099 13.8483 6.9207C13.1226 6.16042 12.7148 5.12926 12.7148 4.05405C12.7148 2.97885 13.1226 1.94769 13.8483 1.18741ZM16.5846 18.0873C16.032 18.0873 15.502 18.3173 15.1112 18.7267C14.7204 19.1361 14.5009 19.6913 14.5009 20.2703C14.5009 20.8492 14.7204 21.4045 15.1112 21.8139C15.502 22.2232 16.032 22.4532 16.5846 22.4532C17.1373 22.4532 17.6673 22.2232 18.058 21.8139C18.4488 21.4045 18.6684 20.8492 18.6684 20.2703C18.6684 19.6913 18.4488 19.1361 18.058 18.7267C17.6673 18.3173 17.1373 18.0873 16.5846 18.0873ZM13.8483 17.4036C14.574 16.6433 15.5583 16.2162 16.5846 16.2162C17.611 16.2162 18.5952 16.6433 19.321 17.4036C20.0467 18.1639 20.4544 19.1951 20.4544 20.2703C20.4544 21.3455 20.0467 22.3766 19.321 23.1369C18.5952 23.8972 17.611 24.3243 16.5846 24.3243C15.5583 24.3243 14.574 23.8972 13.8483 23.1369C13.1226 22.3766 12.7148 21.3455 12.7148 20.2703C12.7148 19.1951 13.1226 18.1639 13.8483 17.4036Z" fill="white"/>
</svg>
