<svg width="137" height="95" viewBox="0 0 137 95" fill="none" xmlns="http://www.w3.org/2000/svg">
<path fill-rule="evenodd" clip-rule="evenodd" d="M26.6093 52.2079C33.9418 52.2079 40.56 49.1508 45.2586 44.242C46.6063 42.834 48.9978 42.8339 50.3455 44.2419C50.5008 44.4042 50.6582 44.5644 50.8177 44.7226C52.1915 46.0853 52.1584 48.4517 50.7473 49.7757C45.7299 54.4833 42.5957 61.1734 42.5957 68.5955C42.5957 82.8467 54.151 94.3996 68.4052 94.3996C75.7375 94.3996 82.3556 91.3428 87.0541 86.4342C88.4018 85.0263 90.7932 85.0263 92.1409 86.4342C96.8395 91.3427 103.458 94.3996 110.79 94.3996C125.044 94.3996 136.599 82.8467 136.599 68.5955C136.599 54.3443 125.044 42.7914 110.79 42.7914C103.458 42.7914 96.8395 45.8482 92.1409 50.7568C90.7932 52.1647 88.4019 52.1648 87.0542 50.7569C86.899 50.5948 86.7418 50.4347 86.5824 50.2767C85.2086 48.914 85.2417 46.5475 86.6528 45.2235C91.6702 40.516 94.8044 33.8258 94.8044 26.4037C94.8044 12.1525 83.2491 0.599609 68.9949 0.599609C61.6624 0.599609 55.0442 3.65665 50.3456 8.56547C48.9979 9.97345 46.6063 9.97345 45.2586 8.56548C40.56 3.65665 33.9418 0.599609 26.6093 0.599609C12.3551 0.599609 0.799805 12.1525 0.799805 26.4037C0.799805 40.655 12.3551 52.2079 26.6093 52.2079Z" fill="url(#paint0_radial_281_689)"/>
<path fill-rule="evenodd" clip-rule="evenodd" d="M26.6093 52.2079C33.9418 52.2079 40.56 49.1508 45.2586 44.242C46.6063 42.834 48.9978 42.8339 50.3455 44.2419C50.5008 44.4042 50.6582 44.5644 50.8177 44.7226C52.1915 46.0853 52.1584 48.4517 50.7473 49.7757C45.7299 54.4833 42.5957 61.1734 42.5957 68.5955C42.5957 82.8467 54.151 94.3996 68.4052 94.3996C75.7375 94.3996 82.3556 91.3428 87.0541 86.4342C88.4018 85.0263 90.7932 85.0263 92.1409 86.4342C96.8395 91.3427 103.458 94.3996 110.79 94.3996C125.044 94.3996 136.599 82.8467 136.599 68.5955C136.599 54.3443 125.044 42.7914 110.79 42.7914C103.458 42.7914 96.8395 45.8482 92.1409 50.7568C90.7932 52.1647 88.4019 52.1648 87.0542 50.7569C86.899 50.5948 86.7418 50.4347 86.5824 50.2767C85.2086 48.914 85.2417 46.5475 86.6528 45.2235C91.6702 40.516 94.8044 33.8258 94.8044 26.4037C94.8044 12.1525 83.2491 0.599609 68.9949 0.599609C61.6624 0.599609 55.0442 3.65665 50.3456 8.56547C48.9979 9.97345 46.6063 9.97345 45.2586 8.56548C40.56 3.65665 33.9418 0.599609 26.6093 0.599609C12.3551 0.599609 0.799805 12.1525 0.799805 26.4037C0.799805 40.655 12.3551 52.2079 26.6093 52.2079Z" fill="url(#paint1_radial_281_689)"/>
<path d="M25.6145 13.5482L35.9325 36.5558H33.5609L30.0805 29.0098H20.5325L17.0829 36.5558H14.6189L25.0601 13.5482H25.6145ZM25.3373 18.4454L21.5489 26.7614H29.0949L25.3373 18.4454Z" fill="white"/>
<path d="M61.9829 14.4414H66.3873C68.9951 14.4414 70.6993 14.5441 71.5001 14.7494C72.3009 14.9547 73.0299 15.3141 73.6869 15.8274C74.3645 16.3407 74.8881 16.9875 75.2577 17.7678C75.6273 18.5275 75.8121 19.3797 75.8121 20.3242C75.8121 21.8437 75.4015 23.0859 74.5801 24.051C73.7588 25.0161 72.7219 25.6321 71.4693 25.899C70.2373 26.1454 68.338 26.2686 65.7713 26.2686H64.2005V36.5558H61.9829V14.4414ZM64.2005 16.5974V24.1434H67.9273C70.1655 24.1845 71.6541 23.8251 72.3933 23.0654C73.1325 22.2851 73.5021 21.3714 73.5021 20.3242C73.5021 17.8397 71.7055 16.5974 68.1121 16.5974H64.2005Z" fill="white"/>
<path d="M61.9829 58.356H66.3873C68.9951 58.356 70.6993 58.4586 71.5001 58.664C72.3009 58.8693 73.0299 59.2286 73.6869 59.742C74.3645 60.2553 74.8881 60.9021 75.2577 61.6824C75.6273 62.4421 75.8121 63.2942 75.8121 64.2388C75.8121 65.7582 75.4015 67.0005 74.5801 67.9656C73.7588 68.9306 72.7219 69.5466 71.4693 69.8136C70.2373 70.06 68.338 70.1832 65.7713 70.1832H64.2005V80.4704H61.9829V58.356ZM64.2005 60.512V68.058H67.9273C70.1655 68.099 71.6541 67.7397 72.3933 66.98C73.1325 66.1997 73.5021 65.286 73.5021 64.2388C73.5021 61.7542 71.7055 60.512 68.1121 60.512H64.2005Z" fill="white"/>
<path d="M105.369 76.3432L107.248 75.2344C108.562 77.6573 110.092 78.8688 111.837 78.8688C112.966 78.8688 113.932 78.5094 114.732 77.7908C115.533 77.0721 115.934 76.1789 115.934 75.1112C115.934 74.2693 115.595 73.4172 114.917 72.5548C114.24 71.6924 113.11 70.676 111.529 69.5056C109.969 68.3146 108.911 67.4317 108.357 66.8568C107.823 66.2613 107.422 65.635 107.156 64.978C106.909 64.3004 106.786 63.6228 106.786 62.9452C106.786 61.5078 107.289 60.2964 108.295 59.3108C109.322 58.3046 110.605 57.8016 112.145 57.8016C113.357 57.8016 114.414 58.1096 115.318 58.7256C116.221 59.321 117.094 60.2142 117.936 61.4052L116.149 62.7912C115.574 62.0109 114.979 61.3641 114.363 60.8508C113.747 60.3374 112.987 60.0808 112.084 60.0808C111.201 60.0808 110.472 60.3477 109.897 60.8816C109.342 61.4154 109.065 62.093 109.065 62.9144C109.065 63.7357 109.312 64.4544 109.804 65.0704C110.318 65.6658 111.457 66.6206 113.223 67.9348C115.01 69.2489 116.303 70.4604 117.104 71.5692C117.925 72.678 118.336 73.8484 118.336 75.0804C118.336 76.682 117.71 78.0782 116.457 79.2692C115.225 80.4396 113.788 81.0248 112.145 81.0248C109.25 81.0248 106.991 79.4642 105.369 76.3432Z" fill="white"/>
<defs>
<radialGradient id="paint0_radial_281_689" cx="0" cy="0" r="1" gradientUnits="userSpaceOnUse" gradientTransform="translate(19.3497 22.9996) rotate(21.0924) scale(52.5185 76.0345)">
<stop stop-color="#FF88FB"/>
<stop offset="0.404806" stop-color="#FF88FB"/>
<stop offset="1" stop-color="#5BFB67"/>
</radialGradient>
<radialGradient id="paint1_radial_281_689" cx="0" cy="0" r="1" gradientUnits="userSpaceOnUse" gradientTransform="translate(132.049 63.5996) rotate(167.093) scale(68.9417 99.8115)">
<stop stop-color="#FF5400"/>
<stop offset="1" stop-color="#6486FF"/>
</radialGradient>
</defs>
</svg>
