<svg width="113" height="80" viewBox="0 0 113 80" fill="none" xmlns="http://www.w3.org/2000/svg">
<path fill-rule="evenodd" clip-rule="evenodd" d="M63 17.0001V27.6043L34.1026 27.6043L63 56.5017L55.5016 64L26.6043 35.1027L26.6043 64H16.0001L16.0001 27.6043H16L16 17.0001H16.0001L16.0001 17L26.6043 17V17.0001L63 17.0001Z" fill="#3F69FF"/>
<mask id="path-2-outside-1_281_489" maskUnits="userSpaceOnUse" x="77.0269" y="12.0068" width="33" height="54" fill="black">
<rect fill="white" x="77.0269" y="12.0068" width="33" height="54"/>
<path d="M102.557 25.9918C100.824 23.6518 99.3502 22.0918 98.1369 21.3118C96.9235 20.4885 95.4935 20.0768 93.8469 20.0768C92.2435 20.0768 90.8785 20.5968 89.7519 21.6368C88.6685 22.6768 88.1269 24.0202 88.1269 25.6668C88.1269 27.2702 88.6469 28.6785 89.6869 29.8918C90.7269 31.1052 93.1102 33.0985 96.8369 35.8718C100.607 38.6018 103.359 41.1802 105.092 43.6068C106.825 46.0335 107.692 48.5902 107.692 51.2768C107.692 54.7868 106.327 57.8418 103.597 60.4418C100.91 62.9985 97.7685 64.2768 94.1719 64.2768C87.8452 64.2768 82.8835 60.7452 79.2869 53.6818L84.0319 50.9518C86.8485 56.1952 90.0119 58.8168 93.5219 58.8168C95.7752 58.8168 97.7035 58.1018 99.3069 56.6718C100.91 55.2418 101.712 53.5735 101.712 51.6668C101.712 49.7602 101.04 47.9618 99.6969 46.2718C98.3535 44.5385 96.0352 42.4368 92.7419 39.9668C89.4485 37.4535 87.1735 35.5468 85.9169 34.2468C84.7035 32.9468 83.8152 31.5602 83.2519 30.0868C82.6885 28.6135 82.4069 27.1402 82.4069 25.6668C82.4069 22.5035 83.4902 19.8385 85.6569 17.6718C87.8669 15.4618 90.7052 14.3568 94.1719 14.3568C96.8585 14.3568 99.1985 15.0502 101.192 16.4368C103.185 17.7802 105.135 19.7952 107.042 22.4818L102.557 25.9918Z"/>
</mask>
<path d="M102.557 25.9918C100.824 23.6518 99.3502 22.0918 98.1369 21.3118C96.9235 20.4885 95.4935 20.0768 93.8469 20.0768C92.2435 20.0768 90.8785 20.5968 89.7519 21.6368C88.6685 22.6768 88.1269 24.0202 88.1269 25.6668C88.1269 27.2702 88.6469 28.6785 89.6869 29.8918C90.7269 31.1052 93.1102 33.0985 96.8369 35.8718C100.607 38.6018 103.359 41.1802 105.092 43.6068C106.825 46.0335 107.692 48.5902 107.692 51.2768C107.692 54.7868 106.327 57.8418 103.597 60.4418C100.91 62.9985 97.7685 64.2768 94.1719 64.2768C87.8452 64.2768 82.8835 60.7452 79.2869 53.6818L84.0319 50.9518C86.8485 56.1952 90.0119 58.8168 93.5219 58.8168C95.7752 58.8168 97.7035 58.1018 99.3069 56.6718C100.91 55.2418 101.712 53.5735 101.712 51.6668C101.712 49.7602 101.04 47.9618 99.6969 46.2718C98.3535 44.5385 96.0352 42.4368 92.7419 39.9668C89.4485 37.4535 87.1735 35.5468 85.9169 34.2468C84.7035 32.9468 83.8152 31.5602 83.2519 30.0868C82.6885 28.6135 82.4069 27.1402 82.4069 25.6668C82.4069 22.5035 83.4902 19.8385 85.6569 17.6718C87.8669 15.4618 90.7052 14.3568 94.1719 14.3568C96.8585 14.3568 99.1985 15.0502 101.192 16.4368C103.185 17.7802 105.135 19.7952 107.042 22.4818L102.557 25.9918Z" fill="#3F69FF"/>
<path d="M102.557 25.9918L101.352 26.8847L102.268 28.1224L103.481 27.1731L102.557 25.9918ZM98.1369 21.3118L97.2946 22.553L97.31 22.5635L97.3257 22.5736L98.1369 21.3118ZM89.7519 21.6368L88.7344 20.5346L88.7236 20.5446L88.7131 20.5548L89.7519 21.6368ZM96.8369 35.8718L95.9413 37.0752L95.9492 37.081L95.9571 37.0867L96.8369 35.8718ZM103.597 60.4418L104.631 61.5285L104.631 61.528L103.597 60.4418ZM79.2869 53.6818L78.5388 52.3817L77.3035 53.0924L77.9502 54.3625L79.2869 53.6818ZM84.0319 50.9518L85.3533 50.242L84.6224 48.8815L83.2838 49.6517L84.0319 50.9518ZM99.3069 56.6718L98.3084 55.5524L99.3069 56.6718ZM99.6969 46.2718L98.5112 47.1907L98.5169 47.198L98.5226 47.2052L99.6969 46.2718ZM92.7419 39.9668L91.8318 41.1593L91.8419 41.1668L92.7419 39.9668ZM85.9169 34.2468L84.8203 35.2703L84.8292 35.2799L84.8384 35.2894L85.9169 34.2468ZM83.2519 30.0868L81.8508 30.6225H81.8508L83.2519 30.0868ZM85.6569 17.6718L84.5962 16.6112L85.6569 17.6718ZM101.192 16.4368L100.335 17.6682L100.344 17.6745L100.354 17.6807L101.192 16.4368ZM107.042 22.4818L107.966 23.6631L109.093 22.781L108.265 21.6137L107.042 22.4818ZM103.762 25.099C102.008 22.7309 100.402 20.9845 98.948 20.0501L97.3257 22.5736C98.2988 23.1991 99.639 24.5728 101.352 26.8847L103.762 25.099ZM98.9791 20.0706C97.4873 19.0583 95.7555 18.5768 93.8469 18.5768V21.5768C95.2315 21.5768 96.3597 21.9187 97.2946 22.553L98.9791 20.0706ZM93.8469 18.5768C91.8854 18.5768 90.1518 19.2263 88.7344 20.5346L90.7693 22.739C91.6052 21.9674 92.6017 21.5768 93.8469 21.5768V18.5768ZM88.7131 20.5548C87.305 21.9065 86.6269 23.6554 86.6269 25.6668H89.6269C89.6269 24.385 90.032 23.4472 90.7907 22.7189L88.7131 20.5548ZM86.6269 25.6668C86.6269 27.6269 87.2741 29.3818 88.548 30.868L90.8257 28.9156C90.0196 27.9752 89.6269 26.9134 89.6269 25.6668H86.6269ZM88.548 30.868C89.7143 32.2287 92.2347 34.3167 95.9413 37.0752L97.7324 34.6685C93.9857 31.8803 91.7394 29.9816 90.8257 28.9156L88.548 30.868ZM95.9571 37.0867C99.6608 39.7687 102.27 42.2366 103.871 44.4787L106.312 42.735C104.447 40.1238 101.553 37.4349 97.7166 34.6569L95.9571 37.0867ZM103.871 44.4787C105.444 46.6802 106.192 48.937 106.192 51.2768H109.192C109.192 48.2434 108.207 45.3868 106.312 42.735L103.871 44.4787ZM106.192 51.2768C106.192 54.3436 105.02 57.0154 102.562 59.3556L104.631 61.528C107.634 58.6683 109.192 55.2301 109.192 51.2768H106.192ZM102.563 59.3552C100.145 61.6557 97.3705 62.7768 94.1719 62.7768V65.7768C98.1666 65.7768 101.675 64.3413 104.631 61.5285L102.563 59.3552ZM94.1719 62.7768C88.5614 62.7768 84.0413 59.7133 80.6235 53.0012L77.9502 54.3625C81.7257 61.7771 87.129 65.7768 94.1719 65.7768V62.7768ZM80.0349 54.982L84.7799 52.252L83.2838 49.6517L78.5388 52.3817L80.0349 54.982ZM82.7104 51.6617C85.5987 57.0383 89.1497 60.3168 93.5219 60.3168V57.3168C90.874 57.3168 88.0983 55.352 85.3533 50.242L82.7104 51.6617ZM93.5219 60.3168C96.1237 60.3168 98.4128 59.4792 100.305 57.7913L98.3084 55.5524C96.9943 56.7245 95.4266 57.3168 93.5219 57.3168V60.3168ZM100.305 57.7913C102.183 56.1168 103.212 54.0579 103.212 51.6668H100.212C100.212 53.0891 99.6376 54.3669 98.3084 55.5524L100.305 57.7913ZM103.212 51.6668C103.212 49.3767 102.396 47.2568 100.871 45.3385L98.5226 47.2052C99.6844 48.6668 100.212 50.1436 100.212 51.6668H103.212ZM100.882 45.353C99.4139 43.4581 96.9661 41.2601 93.6419 38.7668L91.8419 41.1668C95.1042 43.6136 97.2931 45.6189 98.5112 47.1907L100.882 45.353ZM93.6519 38.7744C90.362 36.2637 88.1666 34.4159 86.9953 33.2043L84.8384 35.2894C86.1805 36.6778 88.535 38.6433 91.8318 41.1593L93.6519 38.7744ZM87.0134 33.2234C85.9154 32.0469 85.1389 30.8222 84.6529 29.5511L81.8508 30.6225C82.4915 32.2982 83.4917 33.8468 84.8203 35.2703L87.0134 33.2234ZM84.6529 29.5511C84.1503 28.2367 83.9069 26.9445 83.9069 25.6668H80.9069C80.9069 27.3359 81.2267 28.9903 81.8508 30.6225L84.6529 29.5511ZM83.9069 25.6668C83.9069 22.8869 84.8422 20.6078 86.7175 18.7325L84.5962 16.6112C82.1382 19.0692 80.9069 22.1201 80.9069 25.6668H83.9069ZM86.7175 18.7325C88.6142 16.8358 91.0554 15.8568 94.1719 15.8568V12.8568C90.355 12.8568 87.1195 14.0879 84.5962 16.6112L86.7175 18.7325ZM94.1719 15.8568C96.5863 15.8568 98.6199 16.4749 100.335 17.6682L102.048 15.2055C99.7771 13.6254 97.1307 12.8568 94.1719 12.8568V15.8568ZM100.354 17.6807C102.153 18.8932 103.98 20.7598 105.819 23.35L108.265 21.6137C106.29 18.8305 104.218 16.6671 102.03 15.1929L100.354 17.6807ZM106.117 21.3006L101.632 24.8106L103.481 27.1731L107.966 23.6631L106.117 21.3006Z" fill="#3F69FF" mask="url(#path-2-outside-1_281_489)"/>
</svg>
