<svg width="130" height="80" viewBox="0 0 130 80" fill="none" xmlns="http://www.w3.org/2000/svg">
<g clip-path="url(#clip0_281_468)">
<path fill-rule="evenodd" clip-rule="evenodd" d="M40.5598 59.3797C41.483 56.9387 44.0128 55.0639 46.618 55.2177C53.0335 55.5965 59.5759 53.335 64.4777 48.4332C73.5781 39.3328 73.5781 24.5781 64.4777 15.4777C55.3773 6.37733 40.6227 6.37733 31.5223 15.4777C26.6204 20.3796 24.3589 26.922 24.7378 33.3376C24.8916 35.9427 23.0167 38.4725 20.5758 39.3957C18.5831 40.1493 16.7145 41.3282 15.1103 42.9325C9.05923 48.9835 9.05923 58.7942 15.1103 64.8452C21.1613 70.8963 30.972 70.8963 37.023 64.8452C38.6273 63.241 39.8062 61.3724 40.5598 59.3797Z" fill="#FF88FB"/>
</g>
<mask id="path-2-outside-1_281_468" maskUnits="userSpaceOnUse" x="78.1841" y="12.0068" width="52" height="53" fill="black">
<rect fill="white" x="78.1841" y="12.0068" width="52" height="53"/>
<path d="M127.374 63.1068H121.459L114.114 47.1818H94.4841L87.2041 63.1068H81.0291L103.519 13.6418H105.209L127.374 63.1068ZM111.579 41.5268L104.364 25.4718L97.0841 41.5268H111.579Z"/>
</mask>
<path d="M127.374 63.1068H121.459L114.114 47.1818H94.4841L87.2041 63.1068H81.0291L103.519 13.6418H105.209L127.374 63.1068ZM111.579 41.5268L104.364 25.4718L97.0841 41.5268H111.579Z" fill="#FF88FB"/>
<path d="M127.374 63.1068V64.6068H129.69L128.743 62.4935L127.374 63.1068ZM121.459 63.1068L120.097 63.7351L120.499 64.6068H121.459V63.1068ZM114.114 47.1818L115.476 46.5536L115.074 45.6818H114.114V47.1818ZM94.4841 47.1818V45.6818H93.5205L93.1199 46.5582L94.4841 47.1818ZM87.2041 63.1068V64.6068H88.1677L88.5683 63.7305L87.2041 63.1068ZM81.0291 63.1068L79.6636 62.486L78.6993 64.6068H81.0291V63.1068ZM103.519 13.6418V12.1418H102.553L102.154 13.021L103.519 13.6418ZM105.209 13.6418L106.578 13.0285L106.181 12.1418H105.209V13.6418ZM111.579 41.5268V43.0268H113.898L112.947 40.912L111.579 41.5268ZM104.364 25.4718L105.732 24.857L104.37 21.8261L102.998 24.8524L104.364 25.4718ZM97.0841 41.5268L95.718 40.9074L94.7569 43.0268H97.0841V41.5268ZM127.374 61.6068H121.459V64.6068H127.374V61.6068ZM122.821 62.4786L115.476 46.5536L112.752 47.8101L120.097 63.7351L122.821 62.4786ZM114.114 45.6818H94.4841V48.6818H114.114V45.6818ZM93.1199 46.5582L85.8399 62.4832L88.5683 63.7305L95.8483 47.8055L93.1199 46.5582ZM87.2041 61.6068H81.0291V64.6068H87.2041V61.6068ZM82.3946 63.7277L104.885 14.2627L102.154 13.021L79.6636 62.486L82.3946 63.7277ZM103.519 15.1418H105.209V12.1418H103.519V15.1418ZM103.84 14.2552L126.005 63.7202L128.743 62.4935L106.578 13.0285L103.84 14.2552ZM112.947 40.912L105.732 24.857L102.996 26.0867L110.211 42.1417L112.947 40.912ZM102.998 24.8524L95.718 40.9074L98.4502 42.1463L105.73 26.0913L102.998 24.8524ZM97.0841 43.0268H111.579V40.0268H97.0841V43.0268Z" fill="#FF88FB" mask="url(#path-2-outside-1_281_468)"/>
<defs>
<clipPath id="clip0_281_468">
<rect width="80" height="80" fill="white"/>
</clipPath>
</defs>
</svg>
