<svg width="125" height="80" viewBox="0 0 125 80" fill="none" xmlns="http://www.w3.org/2000/svg">
<path fill-rule="evenodd" clip-rule="evenodd" d="M37.5799 66.1599C53.3642 66.1599 66.1599 53.3642 66.1599 37.5799C66.1599 37.1031 66.1482 36.629 66.1251 36.158C69.1682 39.7944 71 44.4791 71 49.5917C71 61.1593 61.6226 70.5366 50.0551 70.5366C45.2267 70.5366 40.7799 68.9028 37.2373 66.1578C37.3514 66.1592 37.4656 66.1599 37.5799 66.1599ZM37.2373 66.1578C21.6109 65.9743 9 53.2498 9 37.5799C9 21.7957 21.7957 9 37.5799 9C52.8874 9 65.3841 21.0343 66.1251 36.158C62.283 31.5668 56.51 28.6468 50.0551 28.6468C38.4875 28.6468 29.1101 38.0241 29.1101 49.5917C29.1101 56.3309 32.2929 62.3266 37.2373 66.1578Z" fill="#5BFB67"/>
<mask id="path-2-outside-1_281_475" maskUnits="userSpaceOnUse" x="88.7983" y="14.0068" width="34" height="51" fill="black">
<rect fill="white" x="88.7983" y="14.0068" width="34" height="51"/>
<path d="M90.9983 15.5268H100.748C106.295 15.5268 109.935 15.7435 111.668 16.1768C113.402 16.6102 114.983 17.3902 116.413 18.5168C117.887 19.6435 119.035 21.0518 119.858 22.7418C120.682 24.4318 121.093 26.3385 121.093 28.4618C121.093 30.5852 120.682 32.4918 119.858 34.1818C119.078 35.8718 117.93 37.2802 116.413 38.4068C114.94 39.4902 113.12 40.2702 110.953 40.7468C108.787 41.1802 104.952 41.3968 99.4483 41.3968H96.5883V63.1068H90.9983V15.5268ZM96.5883 36.0018H103.998C108.375 36.0885 111.343 35.3952 112.903 33.9218C114.507 32.4485 115.308 30.6068 115.308 28.3968C115.308 23.4568 111.668 20.9868 104.388 20.9868H96.5883V36.0018Z"/>
</mask>
<path d="M90.9983 15.5268H100.748C106.295 15.5268 109.935 15.7435 111.668 16.1768C113.402 16.6102 114.983 17.3902 116.413 18.5168C117.887 19.6435 119.035 21.0518 119.858 22.7418C120.682 24.4318 121.093 26.3385 121.093 28.4618C121.093 30.5852 120.682 32.4918 119.858 34.1818C119.078 35.8718 117.93 37.2802 116.413 38.4068C114.94 39.4902 113.12 40.2702 110.953 40.7468C108.787 41.1802 104.952 41.3968 99.4483 41.3968H96.5883V63.1068H90.9983V15.5268ZM96.5883 36.0018H103.998C108.375 36.0885 111.343 35.3952 112.903 33.9218C114.507 32.4485 115.308 30.6068 115.308 28.3968C115.308 23.4568 111.668 20.9868 104.388 20.9868H96.5883V36.0018Z" fill="#5BFB67"/>
<path d="M90.9983 15.5268V14.0268H89.4983V15.5268H90.9983ZM111.668 16.1768L112.032 14.7216L112.032 14.7216L111.668 16.1768ZM116.413 18.5168L115.485 19.6951L115.494 19.7018L115.502 19.7084L116.413 18.5168ZM119.858 22.7418L121.207 22.0849L121.207 22.0849L119.858 22.7418ZM119.858 34.1818L118.51 33.5249L118.503 33.539L118.496 33.5532L119.858 34.1818ZM116.413 38.4068L117.302 39.6153L117.308 39.611L116.413 38.4068ZM110.953 40.7468L111.248 42.2177L111.262 42.2149L111.276 42.2118L110.953 40.7468ZM96.5883 41.3968V39.8968H95.0883V41.3968H96.5883ZM96.5883 63.1068V64.6068H98.0883V63.1068H96.5883ZM90.9983 63.1068H89.4983V64.6068H90.9983V63.1068ZM96.5883 36.0018H95.0883V37.5018H96.5883V36.0018ZM103.998 36.0018L104.028 34.5021L104.013 34.5018H103.998V36.0018ZM112.903 33.9218L111.888 32.8173L111.881 32.8243L111.873 32.8313L112.903 33.9218ZM96.5883 20.9868V19.4868H95.0883V20.9868H96.5883ZM90.9983 17.0268H100.748V14.0268H90.9983V17.0268ZM100.748 17.0268C106.332 17.0268 109.782 17.2514 111.305 17.632L112.032 14.7216C110.088 14.2356 106.258 14.0268 100.748 14.0268V17.0268ZM111.305 17.632C112.828 18.013 114.218 18.697 115.485 19.6951L117.342 17.3386C115.748 16.0833 113.975 15.2074 112.032 14.7216L111.305 17.632ZM115.502 19.7084C116.788 20.6913 117.787 21.9156 118.51 23.3988L121.207 22.0849C120.283 20.188 118.986 18.5957 117.325 17.3253L115.502 19.7084ZM118.51 23.3988C119.221 24.859 119.593 26.5365 119.593 28.4618H122.593C122.593 26.1405 122.142 24.0046 121.207 22.0849L118.51 23.3988ZM119.593 28.4618C119.593 30.3872 119.221 32.0646 118.51 33.5249L121.207 34.8388C122.142 32.919 122.593 30.7832 122.593 28.4618H119.593ZM118.496 33.5532C117.823 35.0117 116.837 36.2234 115.519 37.2027L117.308 39.611C119.023 38.3369 120.333 36.7319 121.22 34.8104L118.496 33.5532ZM115.525 37.1984C114.252 38.1341 112.636 38.8408 110.631 39.2819L111.276 42.2118C113.604 41.6995 115.628 40.8463 117.302 39.6153L115.525 37.1984ZM110.659 39.276C108.655 39.6768 104.956 39.8968 99.4483 39.8968V42.8968C104.947 42.8968 108.918 42.6835 111.248 42.2177L110.659 39.276ZM99.4483 39.8968H96.5883V42.8968H99.4483V39.8968ZM95.0883 41.3968V63.1068H98.0883V41.3968H95.0883ZM96.5883 61.6068H90.9983V64.6068H96.5883V61.6068ZM92.4983 63.1068V15.5268H89.4983V63.1068H92.4983ZM96.5883 37.5018H103.998V34.5018H96.5883V37.5018ZM103.969 37.5015C108.388 37.5891 111.907 36.9264 113.933 35.0124L111.873 32.8313C110.78 33.864 108.362 34.5879 104.028 34.5021L103.969 37.5015ZM113.918 35.0263C115.836 33.2641 116.808 31.0195 116.808 28.3968H113.808C113.808 30.1942 113.177 31.6329 111.888 32.8173L113.918 35.0263ZM116.808 28.3968C116.808 25.5011 115.708 23.1502 113.421 21.5981C111.237 20.1166 108.151 19.4868 104.388 19.4868V22.4868C107.906 22.4868 110.279 23.092 111.736 24.0805C113.089 24.9985 113.808 26.3525 113.808 28.3968H116.808ZM104.388 19.4868H96.5883V22.4868H104.388V19.4868ZM95.0883 20.9868V36.0018H98.0883V20.9868H95.0883Z" fill="#5BFB67" mask="url(#path-2-outside-1_281_475)"/>
</svg>
