<svg width="126" height="80" viewBox="0 0 126 80" fill="none" xmlns="http://www.w3.org/2000/svg">
<g clip-path="url(#clip0_281_482)">
<path fill-rule="evenodd" clip-rule="evenodd" d="M17.019 62.9429C29.7111 75.6349 50.2889 75.6349 62.981 62.9429C75.673 50.2509 75.673 29.673 62.981 16.981C50.2889 4.28893 29.7111 4.28893 17.019 16.981C4.32699 29.673 4.32699 50.2509 17.019 62.9429ZM68.2392 39.962L40.0001 11.7228L11.7609 39.962L40.0001 68.2011L68.2392 39.962Z" fill="#FF5400"/>
</g>
<mask id="path-2-outside-1_281_482" maskUnits="userSpaceOnUse" x="89.4126" y="14.0068" width="34" height="51" fill="black">
<rect fill="white" x="89.4126" y="14.0068" width="34" height="51"/>
<path d="M91.6126 15.5268H101.363C106.909 15.5268 110.549 15.7435 112.283 16.1768C114.016 16.6102 115.598 17.3902 117.028 18.5168C118.501 19.6435 119.649 21.0518 120.473 22.7418C121.296 24.4318 121.708 26.3385 121.708 28.4618C121.708 30.5852 121.296 32.4918 120.473 34.1818C119.693 35.8718 118.544 37.2802 117.028 38.4068C115.554 39.4902 113.734 40.2702 111.568 40.7468C109.401 41.1802 105.566 41.3968 100.063 41.3968H97.2026V63.1068H91.6126V15.5268ZM97.2026 36.0018H104.613C108.989 36.0885 111.958 35.3952 113.518 33.9218C115.121 32.4485 115.923 30.6068 115.923 28.3968C115.923 23.4568 112.283 20.9868 105.003 20.9868H97.2026V36.0018Z"/>
</mask>
<path d="M91.6126 15.5268H101.363C106.909 15.5268 110.549 15.7435 112.283 16.1768C114.016 16.6102 115.598 17.3902 117.028 18.5168C118.501 19.6435 119.649 21.0518 120.473 22.7418C121.296 24.4318 121.708 26.3385 121.708 28.4618C121.708 30.5852 121.296 32.4918 120.473 34.1818C119.693 35.8718 118.544 37.2802 117.028 38.4068C115.554 39.4902 113.734 40.2702 111.568 40.7468C109.401 41.1802 105.566 41.3968 100.063 41.3968H97.2026V63.1068H91.6126V15.5268ZM97.2026 36.0018H104.613C108.989 36.0885 111.958 35.3952 113.518 33.9218C115.121 32.4485 115.923 30.6068 115.923 28.3968C115.923 23.4568 112.283 20.9868 105.003 20.9868H97.2026V36.0018Z" fill="#FF5400"/>
<path d="M91.6126 15.5268V14.0268H90.1126V15.5268H91.6126ZM112.283 16.1768L112.646 14.7216L112.646 14.7216L112.283 16.1768ZM117.028 18.5168L116.099 19.6951L116.108 19.7018L116.116 19.7084L117.028 18.5168ZM120.473 22.7418L121.821 22.0849L121.821 22.0849L120.473 22.7418ZM120.473 34.1818L119.124 33.5249L119.117 33.539L119.111 33.5532L120.473 34.1818ZM117.028 38.4068L117.916 39.6153L117.922 39.611L117.028 38.4068ZM111.568 40.7468L111.862 42.2177L111.876 42.2149L111.89 42.2118L111.568 40.7468ZM97.2026 41.3968V39.8968H95.7026V41.3968H97.2026ZM97.2026 63.1068V64.6068H98.7026V63.1068H97.2026ZM91.6126 63.1068H90.1126V64.6068H91.6126V63.1068ZM97.2026 36.0018H95.7026V37.5018H97.2026V36.0018ZM104.613 36.0018L104.642 34.5021L104.627 34.5018H104.613V36.0018ZM113.518 33.9218L112.503 32.8173L112.495 32.8243L112.488 32.8313L113.518 33.9218ZM97.2026 20.9868V19.4868H95.7026V20.9868H97.2026ZM91.6126 17.0268H101.363V14.0268H91.6126V17.0268ZM101.363 17.0268C106.946 17.0268 110.396 17.2514 111.919 17.632L112.646 14.7216C110.702 14.2356 106.872 14.0268 101.363 14.0268V17.0268ZM111.919 17.632C113.443 18.013 114.833 18.697 116.099 19.6951L117.956 17.3386C116.363 16.0833 114.589 15.2074 112.646 14.7216L111.919 17.632ZM116.116 19.7084C117.402 20.6913 118.402 21.9156 119.124 23.3988L121.821 22.0849C120.897 20.188 119.6 18.5957 117.939 17.3253L116.116 19.7084ZM119.124 23.3988C119.836 24.859 120.208 26.5365 120.208 28.4618H123.208C123.208 26.1405 122.756 24.0046 121.821 22.0849L119.124 23.3988ZM120.208 28.4618C120.208 30.3872 119.836 32.0646 119.124 33.5249L121.821 34.8388C122.756 32.919 123.208 30.7832 123.208 28.4618H120.208ZM119.111 33.5532C118.438 35.0117 117.451 36.2234 116.133 37.2027L117.922 39.611C119.637 38.3369 120.948 36.7319 121.835 34.8104L119.111 33.5532ZM116.139 37.1984C114.866 38.1341 113.25 38.8408 111.245 39.2819L111.89 42.2118C114.218 41.6995 116.242 40.8463 117.916 39.6153L116.139 37.1984ZM111.273 39.276C109.269 39.6768 105.57 39.8968 100.063 39.8968V42.8968C105.562 42.8968 109.533 42.6835 111.862 42.2177L111.273 39.276ZM100.063 39.8968H97.2026V42.8968H100.063V39.8968ZM95.7026 41.3968V63.1068H98.7026V41.3968H95.7026ZM97.2026 61.6068H91.6126V64.6068H97.2026V61.6068ZM93.1126 63.1068V15.5268H90.1126V63.1068H93.1126ZM97.2026 37.5018H104.613V34.5018H97.2026V37.5018ZM104.583 37.5015C109.002 37.5891 112.521 36.9264 114.548 35.0124L112.488 32.8313C111.394 33.864 108.976 34.5879 104.642 34.5021L104.583 37.5015ZM114.533 35.0263C116.45 33.2641 117.423 31.0195 117.423 28.3968H114.423C114.423 30.1942 113.792 31.6329 112.503 32.8173L114.533 35.0263ZM117.423 28.3968C117.423 25.5011 116.322 23.1502 114.035 21.5981C111.852 20.1166 108.765 19.4868 105.003 19.4868V22.4868C108.52 22.4868 110.894 23.092 112.35 24.0805C113.703 24.9985 114.423 26.3525 114.423 28.3968H117.423ZM105.003 19.4868H97.2026V22.4868H105.003V19.4868ZM95.7026 20.9868V36.0018H98.7026V20.9868H95.7026Z" fill="#FF5400" mask="url(#path-2-outside-1_281_482)"/>
<defs>
<clipPath id="clip0_281_482">
<rect width="80" height="80" fill="white"/>
</clipPath>
</defs>
</svg>
