<svg xmlns="http://www.w3.org/2000/svg" width="36" height="36" viewBox="0 0 36 36" fill="none">
  <path d="M28.9206 27.3287C29.0251 27.4332 29.108 27.5573 29.1646 27.6939C29.2212 27.8305 29.2503 27.9768 29.2503 28.1246C29.2503 28.2725 29.2212 28.4188 29.1646 28.5554C29.108 28.692 29.0251 28.8161 28.9206 28.9206C28.8161 29.0251 28.692 29.108 28.5554 29.1646C28.4188 29.2212 28.2725 29.2503 28.1246 29.2503C27.9768 29.2503 27.8305 29.2212 27.6939 29.1646C27.5573 29.108 27.4332 29.0251 27.3287 28.9206L17.9996 19.5901L8.67059 28.9206C8.45949 29.1317 8.17318 29.2503 7.87465 29.2503C7.57611 29.2503 7.28981 29.1317 7.07871 28.9206C6.86762 28.7095 6.74902 28.4232 6.74902 28.1246C6.74902 27.8261 6.86762 27.5398 7.07871 27.3287L16.4092 17.9996L7.07871 8.67059C6.86762 8.45949 6.74902 8.17318 6.74902 7.87465C6.74902 7.57611 6.86762 7.28981 7.07871 7.07871C7.28981 6.86762 7.57611 6.74902 7.87465 6.74902C8.17318 6.74902 8.45949 6.86762 8.67059 7.07871L17.9996 16.4092L27.3287 7.07871C27.5398 6.86762 27.8261 6.74902 28.1246 6.74902C28.4232 6.74902 28.7095 6.86762 28.9206 7.07871C29.1317 7.28981 29.2503 7.57611 29.2503 7.87465C29.2503 8.17318 29.1317 8.45949 28.9206 8.67059L19.5901 17.9996L28.9206 27.3287Z" fill="#FF5400"/>
</svg>