<svg width="36" height="36" viewBox="0 0 36 36" fill="none" xmlns="http://www.w3.org/2000/svg">
<g id="x_pink">
<path id="Vector" d="M29.1716 27.5797C29.2761 27.6842 29.359 27.8083 29.4156 27.9449C29.4721 28.0814 29.5013 28.2278 29.5013 28.3756C29.5013 28.5234 29.4721 28.6698 29.4156 28.8064C29.359 28.943 29.2761 29.067 29.1716 29.1716C29.067 29.2761 28.943 29.359 28.8064 29.4156C28.6698 29.4721 28.5234 29.5013 28.3756 29.5013C28.2278 29.5013 28.0814 29.4721 27.9449 29.4156C27.8083 29.359 27.6842 29.2761 27.5797 29.1716L18.2506 19.8411L8.92156 29.1716C8.71047 29.3827 8.42416 29.5013 8.12563 29.5013C7.82709 29.5013 7.54078 29.3827 7.32969 29.1716C7.11859 28.9605 7 28.6742 7 28.3756C7 28.0771 7.11859 27.7908 7.32969 27.5797L16.6602 18.2506L7.32969 8.92156C7.11859 8.71047 7 8.42416 7 8.12563C7 7.82709 7.11859 7.54078 7.32969 7.32969C7.54078 7.11859 7.82709 7 8.12563 7C8.42416 7 8.71047 7.11859 8.92156 7.32969L18.2506 16.6602L27.5797 7.32969C27.7908 7.11859 28.0771 7 28.3756 7C28.6742 7 28.9605 7.11859 29.1716 7.32969C29.3827 7.54078 29.5013 7.82709 29.5013 8.12563C29.5013 8.42416 29.3827 8.71047 29.1716 8.92156L19.8411 18.2506L29.1716 27.5797Z" fill="#FF88FB"/>
</g>
</svg>
