<svg width="51" height="50" viewBox="0 0 51 50" fill="none" xmlns="http://www.w3.org/2000/svg">
<g id="github">
<path id="Rectangle 2567" d="M0.453125 9.89011C0.453125 4.42795 4.88108 0 10.3432 0H40.563C46.0252 0 50.4531 4.42795 50.4531 9.89011V40.1099C50.4531 45.572 46.0252 50 40.563 50H10.3432C4.88108 50 0.453125 45.572 0.453125 40.1099V9.89011Z" fill="white"/>
<path id="Vector" d="M25.9531 9C23.7863 9 21.6407 9.42413 19.6388 10.2482C17.637 11.0722 15.818 12.28 14.2859 13.8026C11.1915 16.8777 9.45313 21.0484 9.45312 25.3972C9.45313 32.6448 14.1886 38.7938 20.7391 40.9746C21.5641 41.1058 21.8281 40.5975 21.8281 40.1547V37.3836C17.2576 38.3674 16.2841 35.1864 16.2841 35.1864C15.5251 33.2843 14.4526 32.776 14.4526 32.776C12.9511 31.7594 14.5681 31.7922 14.5681 31.7922C16.2181 31.9069 17.0926 33.4811 17.0926 33.4811C18.5281 35.9734 20.9536 35.2356 21.8941 34.842C22.0426 33.7762 22.4716 33.0547 22.9336 32.6448C19.2706 32.2349 15.4261 30.8247 15.4261 24.5774C15.4261 22.7573 16.0531 21.2979 17.1256 20.1337C16.9606 19.7238 16.3831 18.0185 17.2906 15.8049C17.2906 15.8049 18.6766 15.3621 21.8281 17.4774C23.1316 17.1166 24.5506 16.9363 25.9531 16.9363C27.3556 16.9363 28.7746 17.1166 30.0781 17.4774C33.2296 15.3621 34.6156 15.8049 34.6156 15.8049C35.5231 18.0185 34.9456 19.7238 34.7806 20.1337C35.8531 21.2979 36.4801 22.7573 36.4801 24.5774C36.4801 30.8411 32.6191 32.2185 28.9396 32.6284C29.5336 33.1367 30.0781 34.137 30.0781 35.6619V40.1547C30.0781 40.5975 30.3421 41.1222 31.1836 40.9746C37.7341 38.7774 42.4531 32.6448 42.4531 25.3972C42.4531 23.2439 42.0263 21.1117 41.1971 19.1223C40.3679 17.1329 39.1526 15.3253 37.6204 13.8026C36.0882 12.28 34.2693 11.0722 32.2674 10.2482C30.2655 9.42413 28.1199 9 25.9531 9Z" fill="black"/>
</g>
</svg>
