<svg xmlns="http://www.w3.org/2000/svg" width="50" height="50" viewBox="0 0 50 50" fill="none">
  <path d="M0 9.89011C0 4.42795 4.42795 0 9.89011 0H40.1099C45.572 0 50 4.42795 50 9.89011V40.1099C50 45.572 45.572 50 40.1099 50H9.89011C4.42795 50 0 45.572 0 40.1099V9.89011Z" fill="#FFFFFF"/>
  <g transform="translate(5, 5) scale(0.1)">
    <path d="M266.832 23.52C271.014 27.3974 274.96 31.5323 278.931 35.6354C280.102 36.836 281.273 38.036 282.445 39.2356C285.598 42.4665 288.744 45.7054 291.888 48.9463C294.523 51.6622 297.163 54.3743 299.802 57.0864C306.033 63.4886 312.258 69.8973 318.478 76.3102C324.874 82.9038 331.28 89.4866 337.691 96.0641C343.218 101.735 348.738 107.412 354.253 113.094C357.538 116.478 360.824 119.859 364.117 123.234C367.214 126.409 370.302 129.591 373.384 132.78C374.51 133.942 375.638 135.101 376.77 136.257C396.656 156.584 408.063 180.812 408.357 209.842C408.215 241.461 394.641 265.331 373.383 287.135C372.216 288.34 371.051 289.546 369.885 290.752C366.747 293.998 363.6 297.236 360.452 300.472C357.814 303.186 355.179 305.903 352.545 308.62C346.325 315.034 340.1 321.442 333.87 327.845C327.465 334.429 321.07 341.023 314.681 347.623C309.172 353.313 303.657 358.995 298.137 364.673C294.85 368.054 291.565 371.437 288.287 374.826C285.203 378.014 282.111 381.193 279.014 384.366C277.885 385.525 276.759 386.687 275.636 387.851C255.89 408.322 232.354 420.064 204.153 420.367C173.438 420.221 150.25 406.248 129.069 384.365C127.898 383.164 126.727 381.964 125.555 380.764C122.402 377.533 119.256 374.295 116.112 371.054C113.477 368.338 110.837 365.626 108.198 362.914C101.967 356.511 95.7425 350.103 89.5221 343.69C83.1263 337.096 76.7201 330.513 70.3086 323.936C64.782 318.265 59.2618 312.588 53.7466 306.906C50.4623 303.522 47.1756 300.141 43.8829 296.766C40.7864 293.591 37.6981 290.409 34.6157 287.22C33.49 286.058 32.3615 284.899 31.23 283.743C11.3444 263.416 -0.0626576 239.188 -0.356995 210.157C-0.214929 178.539 13.3592 154.669 34.6173 132.865C35.7835 131.66 36.9493 130.454 38.1146 129.248C41.2532 126.002 44.3996 122.764 47.5478 119.528C50.1862 116.814 52.8208 114.097 55.4554 111.38C61.6747 104.966 67.9002 98.5584 74.1299 92.1551C80.5351 85.5712 86.9298 78.9765 93.3194 72.3765C98.8279 66.6873 104.343 61.0047 109.863 55.3274C113.15 51.9464 116.435 48.5631 119.713 45.1735C122.797 41.986 125.889 38.8069 128.986 35.6338C130.115 34.4749 131.241 33.3133 132.364 32.1485C169.147 -5.98399 225.902 -11.9562 266.832 23.52ZM155.04 162.96C154.494 163.512 153.948 164.064 153.386 164.633C141.506 177.556 136.449 195.848 136.884 213.288C137.741 231.859 145.79 247.5 158.304 260.4C158.84 260.962 159.377 261.524 159.93 262.103C172.483 274.332 190.252 279.538 207.194 279.09C225.235 278.208 240.428 269.922 252.96 257.04C253.506 256.488 254.052 255.936 254.614 255.367C266.338 242.614 271.389 224.629 271.116 207.421C269.951 188.566 262.563 172.865 249.696 159.6C249.16 159.038 248.623 158.476 248.07 157.897C235.517 145.668 217.748 140.462 200.806 140.91C182.765 141.792 167.572 150.078 155.04 162.96Z" fill="#2861FF"/>
  </g>
</svg>

