<svg width="50" height="50" viewBox="0 0 50 50" fill="none" xmlns="http://www.w3.org/2000/svg">
  <path d="M0 9.89011C0 4.42795 4.42795 0 9.89011 0H40.1099C45.572 0 50 4.42795 50 9.89011V40.1099C50 45.572 45.572 50 40.1099 50H9.89011C4.42795 50 0 45.572 0 40.1099V9.89011Z" fill="#0177B5"/>
  <g transform="translate(10, 10)">
    <svg width="30" height="30" viewBox="0 0 30 30" fill="none" xmlns="http://www.w3.org/2000/svg">
      <g id="Group 2416">
        <path id="Rectangle 2568" d="M0 9.09082H6.81818V29.5454H0V9.09082Z" fill="white"/>
        <path id="Ellipse 11" d="M6.81818 3.40909C6.81818 5.29188 5.29188 6.81818 3.40909 6.81818C1.5263 6.81818 0 5.29188 0 3.40909C0 1.5263 1.5263 0 3.40909 0C5.29188 0 6.81818 1.5263 6.81818 3.40909Z" fill="white"/>
        <path id="Union" fill-rule="evenodd" clip-rule="evenodd" d="M15.909 9.09082H9.09082V29.5454H15.909V9.09082ZM15.909 11.9318C18.7022 8.57979 26.9878 6.87585 29.4255 14.9198C29.5087 15.1943 29.5454 15.4861 29.5454 15.7729V29.5454L23.2954 29.5453V16.8288C23.2954 15.9302 22.7546 15.0989 21.8909 14.8509C19.4672 14.1549 17.0508 14.3758 15.909 18.1817V11.9318Z" fill="white"/>
      </g>
    </svg>
  </g>
</svg>

