<svg width="50" height="50" viewBox="0 0 50 50" fill="none" xmlns="http://www.w3.org/2000/svg">
<g id="vimeo">
<path id="Rectangle 2567" d="M0 9.89011C0 4.42795 4.42795 0 9.89011 0H40.1099C45.572 0 50 4.42795 50 9.89011V40.1099C50 45.572 45.572 50 40.1099 50H9.89011C4.42795 50 0 45.572 0 40.1099V9.89011Z" fill="#20C997"/>
<path id="Vector" d="M38.9861 18.5541C38.8602 21.2525 36.9571 24.9472 33.277 29.6521C29.4708 34.5784 26.2524 37 23.5938 37C21.9846 37 20.5992 35.5055 19.4658 32.5027C18.6962 29.7904 17.9965 27.0505 17.2129 24.3106C16.3733 21.3216 15.4778 19.8272 14.4983 19.8272C14.3024 19.8272 13.5747 20.27 12.3153 21.1418L11 19.4535C12.3993 18.2496 13.7426 17.0457 15.086 15.8418C16.9331 14.2643 18.3184 13.434 19.2279 13.351C21.4108 13.1296 22.7542 14.6241 23.2579 17.7791C23.8037 21.1971 24.1815 23.3143 24.3914 24.1446C24.9931 26.9675 25.6927 28.3513 26.4623 28.3513C27.05 28.3513 27.9316 27.4657 29.107 25.6252C30.2824 23.7986 30.9121 22.401 30.9961 21.4324C31.164 19.8548 30.5343 19.0661 29.107 19.0661C28.4354 19.0661 27.7497 19.2183 27.0361 19.5227C28.4074 15.0531 31.0381 12.8805 34.9142 13.0051C37.7967 13.0881 39.1541 14.9424 38.9861 18.5541Z" fill="white"/>
</g>
</svg>
